<?xml version="1.0" encoding="UTF-8" standalone="no"?>
<!-- Created with Inkscape (http://www.inkscape.org/) -->

<svg
   xmlns:dc="http://purl.org/dc/elements/1.1/"
   xmlns:cc="http://creativecommons.org/ns#"
   xmlns:rdf="http://www.w3.org/1999/02/22-rdf-syntax-ns#"
   xmlns:svg="http://www.w3.org/2000/svg"
   xmlns="http://www.w3.org/2000/svg"
   xmlns:xlink="http://www.w3.org/1999/xlink"
   xmlns:sodipodi="http://sodipodi.sourceforge.net/DTD/sodipodi-0.dtd"
   xmlns:inkscape="http://www.inkscape.org/namespaces/inkscape"
   width="210mm"
   height="297mm"
   viewBox="0 0 210 297"
   version="1.1"
   id="svg8"
   inkscape:version="0.92.1 r15371"
   sodipodi:docname="NQ.svg">
  <defs
     id="defs2">
    <linearGradient
       inkscape:collect="always"
       id="linearGradient6018">
      <stop
         style="stop-color:#e5ff37;stop-opacity:1"
         offset="0"
         id="stop6014" />
      <stop
         style="stop-color:#353aff;stop-opacity:0.54901963"
         offset="1"
         id="stop6016" />
    </linearGradient>
    <linearGradient
       inkscape:collect="always"
       id="linearGradient6008">
      <stop
         style="stop-color:#cb6753;stop-opacity:1"
         offset="0"
         id="stop6004" />
      <stop
         id="stop6012"
         offset="0.5"
         style="stop-color:#cb6c58;stop-opacity:0.49803922" />
      <stop
         style="stop-color:#cbadd0;stop-opacity:1"
         offset="1"
         id="stop6006" />
    </linearGradient>
    <linearGradient
       inkscape:collect="always"
       xlink:href="#linearGradient6008"
       id="linearGradient6010"
       x1="101.05949"
       y1="101.81824"
       x2="116.47707"
       y2="252.81972"
       gradientUnits="userSpaceOnUse" />
    <linearGradient
       inkscape:collect="always"
       xlink:href="#linearGradient6018"
       id="linearGradient6020"
       x1="36.922848"
       y1="214.23442"
       x2="15.298757"
       y2="73.06031"
       gradientUnits="userSpaceOnUse" />
  </defs>
  <sodipodi:namedview
     id="base"
     pagecolor="#000000"
     bordercolor="#666666"
     borderopacity="1.0"
     inkscape:pageopacity="0"
     inkscape:pageshadow="2"
     inkscape:zoom="1.4"
     inkscape:cx="398.30585"
     inkscape:cy="557.12138"
     inkscape:document-units="mm"
     inkscape:current-layer="layer1"
     showgrid="false"
     inkscape:window-width="1920"
     inkscape:window-height="1017"
     inkscape:window-x="-8"
     inkscape:window-y="1072"
     inkscape:window-maximized="1" />
  <metadata
     id="metadata5">
    <rdf:RDF>
      <cc:Work
         rdf:about="">
        <dc:format>image/svg+xml</dc:format>
        <dc:type
           rdf:resource="http://purl.org/dc/dcmitype/StillImage" />
        <dc:title></dc:title>
      </cc:Work>
    </rdf:RDF>
  </metadata>
  <g
     inkscape:label="Layer 1"
     inkscape:groupmode="layer"
     id="layer1">
    <path
       style="fill:#3b0077;fill-opacity:1;stroke-width:0.21824427"
       d="m 100.79629,205.7617 c -0.25571,-0.9094 -0.56208,-7.15145 -0.79068,-16.10976 -0.115745,-4.53618 -0.211368,-5.83088 -0.437139,-5.91924 -0.158941,-0.0622 -0.288983,-0.34732 -0.288983,-0.63359 0,-0.70915 0.528313,-0.48035 0.877812,0.38017 0.14798,0.36434 0.49726,0.81493 0.77618,1.0013 0.33407,0.22324 0.50713,0.55142 0.50713,0.96172 0,0.34255 0.0972,0.68413 0.2161,0.75905 0.31778,0.20029 0.26314,1.33197 -0.10805,2.23798 -0.19031,0.46449 -0.30766,1.34895 -0.28419,2.1418 l 0.0399,1.35058 0.0671,-1.21219 c 0.0369,-0.66671 0.20858,-1.70809 0.3815,-2.31418 0.17293,-0.6061 0.41486,-1.44913 0.53764,-1.87339 0.24663,-0.85226 0.16096,4.86999 -0.20293,13.5545 -0.19472,4.64741 -0.44093,6.50175 -0.86326,6.50175 -0.10769,0 -0.30038,-0.37192 -0.4282,-0.8265 z M 82.855037,179.4792 v -12.1219 h 5.40278 5.402785 v 1.98358 1.98358 h -3.457787 -3.457779 v 1.54278 1.54279 h 1.512781 1.512771 v -0.88159 -0.88159 h 1.080571 1.08055 v 3.74677 3.74677 h -1.08055 -1.080571 v -0.88159 -0.8816 h -1.512771 -1.512781 v 5.01959 5.01957 l -1.571889,1.59238 c -0.864538,0.8758 -1.739786,1.59237 -1.945001,1.59237 -0.348886,0 -0.373109,-0.78707 -0.373109,-12.12191 z m 96.601713,9.80474 c 0,-0.42592 -0.0829,-0.94661 -0.18431,-1.15709 -0.77073,-1.60033 -0.92999,-2.0221 -0.82747,-2.19127 0.0644,-0.10621 -0.21654,-0.15339 -0.62421,-0.10485 -0.711,0.0847 -0.74211,0.0581 -0.76278,-0.65216 -0.0118,-0.40723 -0.10448,-0.98836 -0.20586,-1.2914 l -0.18432,-0.551 0.0137,0.551 c 0.007,0.30304 0.003,0.87332 -0.0102,1.26728 l -0.0239,0.7163 h -5.83501 -5.83498 v -3.74677 -3.74678 h 1.945 1.945 v 1.05876 c 0,0.90828 0.10127,1.15888 0.71265,1.76319 0.68969,0.68175 1.44846,0.9353 1.44846,0.48403 0,-0.13958 1.58482,-0.2204 4.32221,-0.2204 h 4.32223 v 4.29778 c 0,2.36376 -0.0486,4.29776 -0.10805,4.29776 -0.0595,0 -0.10805,-0.34847 -0.10805,-0.77438 z M 45.683908,183.88717 c 0,-3.37945 0.018,-3.52638 0.432223,-3.52638 0.237722,0 0.432222,0.1211 0.432222,0.26911 0,0.148 0.556143,0.84226 1.235875,1.54278 l 1.235873,1.27369 h 5.031352 5.03135 v -4.18757 -4.18757 h -4.877939 c -3.939398,0 -4.937339,-0.0606 -5.186669,-0.31485 -0.455188,-0.46423 -0.455188,-10.80759 0,-11.2718 0.25316,-0.25818 1.42016,-0.31486 6.483337,-0.31486 h 6.174606 v 2.64478 2.64478 h -1.080556 c -1.056544,0 -1.080556,-0.0147 -1.080556,-0.66119 v -0.6612 h -3.45778 -3.457779 v 1.98359 1.98357 h 4.877939 c 3.939398,0 4.93734,0.0606 5.186669,0.31486 0.254328,0.25938 0.30873,1.52257 0.30873,7.16875 v 6.8539 l -0.966812,0.98599 -0.966815,0.98599 h -7.677633 -7.677637 z m 56.113512,2.27402 c -0.0774,-0.079 -0.14071,-0.42223 -0.14071,-0.76289 0,-0.4105 -0.17482,-0.73621 -0.51842,-0.9658 -0.28513,-0.19053 -0.63885,-0.64292 -0.78603,-1.0053 -0.14718,-0.36238 -0.448763,-0.75775 -0.670189,-0.8786 -0.376193,-0.20533 -0.402583,-0.58033 -0.402583,-5.72194 v -5.5022 h -0.648334 c -0.607388,0 -0.648334,0.0532 -0.648334,0.84317 0,1.00625 -0.697848,1.80161 -1.580733,1.80161 h -0.580376 v -3.30598 -3.30596 h 1.728892 1.728885 v -1.102 c 0,-0.95506 -0.05767,-1.10199 -0.432217,-1.10199 -0.336178,0 -0.432226,-0.14694 -0.432226,-0.6612 v -0.66119 h 2.809445 2.80945 v 0.66119 c 0,0.51426 -0.0961,0.6612 -0.43223,0.6612 -0.37459,0 -0.43222,0.14693 -0.43222,1.10199 v 1.102 h 1.7289 1.72888 v 3.30596 3.30598 h -0.61066 c -0.8588,0 -1.55045,-0.81747 -1.55045,-1.8325 0,-0.7556 -0.0452,-0.81228 -0.64834,-0.81228 h -0.64833 v 6.14757 c 0,5.2612 -0.0467,6.16587 -0.32416,6.27444 -0.20713,0.0811 -0.32666,0.42776 -0.33104,0.96027 -0.007,0.83011 -0.44914,1.72748 -0.71687,1.45445 z m -35.096696,-1.06091 c -0.204569,-0.23696 -0.27014,-2.09552 -0.27014,-7.65683 v -7.34392 l 1.356511,-1.37111 1.356508,-1.37112 h 4.430708 4.43071 l 1.34445,1.38341 1.344451,1.38342 v 7.33805 c 0,6.06579 -0.05352,7.39265 -0.308727,7.65292 -0.455788,0.46483 -13.282382,0.45093 -13.684471,-0.0148 z m 10.103198,-8.92706 v -4.84876 h -2.422139 -2.422138 l -0.81953,0.81612 -0.819529,0.81613 v 4.03264 4.03263 h 3.241668 3.241668 z m 34.627058,7.43384 -1.77815,-1.82289 v -6.55225 -6.55223 h -0.86444 c -0.81642,0 -0.86445,-0.0367 -0.86445,-0.6612 v -0.66119 h 2.80945 2.80944 v 7.05273 7.05275 h 1.51278 1.51278 V 175.31 c 0,-4.70674 0.0635,-6.183 0.27013,-6.28135 0.21612,-0.10285 0.21612,-0.15428 0,-0.25713 -0.14856,-0.0707 -0.27013,-0.41785 -0.27013,-0.7714 v -0.64282 h 1.945 1.945 v 0.64282 c 0,0.35355 -0.12157,0.70068 -0.27014,0.7714 -0.21611,0.10285 -0.21611,0.15428 0,0.25713 0.20665,0.0983 0.27014,1.57461 0.27014,6.28135 v 6.15278 h 1.52163 1.52162 l -0.0735,-6.77725 c -0.0404,-3.72748 -0.15301,-7.00039 -0.25017,-7.27314 -0.13681,-0.38406 -0.0978,-0.49589 0.17273,-0.49589 0.19216,0 0.34938,0.0992 0.34938,0.22039 0,0.12123 0.20024,0.22041 0.44498,0.22041 0.24473,0 0.38487,-0.0992 0.31141,-0.22041 -0.0734,-0.12122 -0.0387,-0.22039 0.0773,-0.22039 0.11597,0 0.259,0.12397 0.31785,0.27549 0.0591,0.15201 0.23367,-0.0456 0.38956,-0.44079 0.34546,-0.87579 0.5691,-0.91314 0.65969,-0.1102 0.0668,0.59209 0.10459,0.60759 1.63519,0.67085 1.55023,0.0641 1.5668,0.0711 1.5668,0.67156 0,0.41755 -0.26963,0.87533 -0.86444,1.46767 l -0.86445,0.86085 v 5.74559 5.74559 l -1.78743,1.81342 -1.78743,1.81342 h -1.88651 -1.88645 v -0.94855 c 0,-0.79473 -0.12266,-1.06982 -0.75639,-1.69623 l -0.75638,-0.74766 -0.75639,0.74766 c -0.63372,0.62641 -0.7564,0.9015 -0.7564,1.69623 v 0.94855 h -1.89574 -1.89575 z m 17.23963,0.7209 v -1.10199 h 0.86445 0.86445 v -6.12092 -6.12092 l 1.78743,-1.81341 1.78743,-1.81342 h 3.56609 3.5661 l 1.77814,1.82289 1.77815,1.82288 v 6.11145 6.11145 h 0.86444 0.86445 v 1.10199 1.10199 h -3.67389 -3.6739 v -1.10199 -1.10199 h 0.86445 0.86444 v -2.42438 -2.42439 h -3.24166 -3.24167 v 3.52638 3.52637 h -0.64833 -0.64834 v -2.16982 c 0,-1.88992 -0.0558,-2.22129 -0.43222,-2.56874 -0.35749,-0.32994 -0.43222,-0.67882 -0.43222,-2.01775 0,-1.39136 0.0532,-1.62009 0.37819,-1.62787 0.20801,-0.005 0.81238,-0.40926 1.34306,-0.89842 0.8511,-0.78452 0.88933,-0.85645 0.32417,-0.61009 -0.35239,0.1536 -0.84147,0.45872 -1.08685,0.67802 -0.7145,0.63856 -0.95857,0.49513 -0.95857,-0.56334 0,-0.62834 -0.14993,-1.15645 -0.43223,-1.52245 -0.23772,-0.3082 -0.43222,-0.66285 -0.43222,-0.7881 0,-0.12525 -0.0882,-0.28331 -0.19595,-0.35124 -0.30668,-0.19329 -0.009,0.71384 0.32736,0.99886 0.23121,0.19569 0.30081,0.97993 0.30081,3.38923 0,2.85472 0.0386,3.17026 0.43223,3.53354 0.37348,0.34471 0.43222,0.67883 0.43222,2.45855 v 2.05962 h -1.945 -1.94501 z m 12.10223,-11.46072 v -1.54278 h -3.24166 -3.24167 v 1.54278 1.54279 h 3.24167 3.24166 z m 6.91557,4.14454 v -8.41818 l 0.58071,-0.61815 0.5807,-0.61815 h 4.65572 4.65571 l 1.89525,1.92389 1.89525,1.92387 v 3.58608 3.58606 h -1.7289 -1.72889 v 0.6612 c 0,0.54276 0.0889,0.66119 0.49642,0.66119 0.2944,0 0.83994,0.35878 1.34053,0.8816 0.46426,0.48488 1.01887,0.88159 1.23247,0.88159 0.34498,0 0.38837,0.22161 0.38837,1.98359 v 1.98358 h -1.945 -1.94501 v -1.76319 -1.76318 h -3.24166 -3.24167 l 0.0171,0.9367 c 0.009,0.51517 0.0661,0.81271 0.12606,0.66119 0.06,-0.15152 0.44128,-0.2755 0.84738,-0.2755 h 0.73838 v 1.10199 1.10199 h -2.80943 -2.80946 v -8.41817 z m 9.66068,0.22019 0.71265,-0.70442 v -2.60155 -2.60154 h -3.24166 -3.24167 v 3.30597 3.30598 h 2.52901 2.52902 z m 7.62821,-2.16074 v -1.98359 h 0.86445 c 0.47544,0 0.86444,-0.0992 0.86444,-0.2204 0,-0.12121 -0.389,-0.22039 -0.86444,-0.22039 h -0.86445 v -2.86518 -2.86517 h 6.35727 c 4.88361,0 6.38254,0.0639 6.46627,0.27549 0.06,0.15153 0.11668,0.0523 0.12607,-0.22039 0.0138,-0.4002 0.14218,-0.4959 0.66539,-0.4959 h 0.64834 v 2.42438 2.42438 h -0.64834 c -0.35658,0 -0.64833,-0.0992 -0.64833,-0.22041 0,-0.13992 -1.65685,-0.22039 -4.53834,-0.22039 h -4.53833 v 1.10199 1.10199 h 2.59333 2.59334 v 1.102 c 0,0.91998 -0.0652,1.10199 -0.39456,1.10199 -0.48497,0 -1.33433,0.88587 -1.33433,1.3917 0,0.33381 -0.37254,0.37148 -3.67389,0.37148 H 164.9773 Z M 26.450014,171.10405 c 0,-0.93908 0.06126,-1.10197 0.414207,-1.10197 0.227821,0 0.453813,0.12114 0.502216,0.26922 0.05628,0.17213 0.296612,0.0565 0.666344,-0.32057 l 0.578342,-0.58982 v -5.66257 -5.66258 l 0.756388,-0.94138 c 0.540778,-0.67305 0.756388,-1.15871 0.756388,-1.70381 0,-0.41932 0.145881,-0.88588 0.324171,-1.03678 0.27714,-0.23458 0.324914,-0.16654 0.329317,0.46891 0.0024,0.4088 0.108095,1.14 0.233906,1.62487 0.125805,0.48488 0.283569,1.17913 0.350587,1.5428 0.06698,0.36365 0.350758,0.96808 0.630544,1.34319 0.505811,0.67812 0.508702,0.71663 0.508702,6.77725 v 6.09524 h -3.02556 -3.025552 z m 9.54656,-3.81606 -0.469896,-0.51011 V 152.7417 138.7055 h -1.512776 -1.512776 v 3.9777 c 0,3.87666 -0.01274,3.99002 -0.502355,4.46306 -0.27629,0.26696 -0.564988,0.65894 -0.641554,0.87107 -0.07653,0.21214 -0.336742,0.3857 -0.578205,0.3857 -0.41651,0 -0.439004,-0.1335 -0.439004,-2.60636 0,-2.43943 -0.03202,-2.63705 -0.500175,-3.08558 -0.275098,-0.26356 -0.664098,-0.47921 -0.864442,-0.47921 -0.322513,0 -0.364268,-0.32117 -0.364268,-2.80174 v -2.80174 l 0.90944,-0.94503 0.90944,-0.94504 h 3.170215 c 2.645814,0 3.217801,-0.0585 3.457924,-0.35355 0.158246,-0.19446 0.510531,-0.43995 0.782852,-0.54554 0.458451,-0.17776 0.495133,-0.32102 0.495133,-1.93364 0,-1.27927 -0.08606,-1.81451 -0.324167,-2.01603 -0.178293,-0.15091 -0.324165,-0.4147 -0.324165,-0.5862 0,-0.28611 -1.145992,-1.53019 -2.403829,-2.60958 -0.651789,-0.55932 -1.052314,-1.28701 -1.059796,-1.92549 -0.0033,-0.27439 -0.367804,-0.89561 -0.810182,-1.38049 -0.801892,-0.87891 -0.808941,-0.88145 -2.317346,-0.83617 -1.506496,0.0452 -1.516976,0.0415 -2.431496,-0.87238 -0.79481,-0.79424 -0.918465,-1.04369 -0.918465,-1.85286 0,-0.51428 0.105571,-1.43712 0.234617,-2.05075 0.224163,-1.066 0.204911,-1.16145 -0.432225,-2.14243 -0.815891,-1.25621 -0.851855,-2.15255 -0.126563,-3.15513 0.297152,-0.41076 0.54028,-0.64822 0.54028,-0.52769 0,0.12052 -0.109729,0.33104 -0.243831,0.4678 -0.31365,0.31987 -0.279778,2.21661 0.04672,2.61787 0.455594,0.55984 1.036779,0.35344 1.382791,-0.49111 0.436121,-1.06449 0.471774,-5.81364 0.04362,-5.81364 -0.155878,0 -0.492187,-0.19836 -0.747354,-0.4408 -0.255168,-0.24244 -0.655015,-0.44079 -0.888563,-0.44079 -0.886144,0 -3.26734,-3.18992 -3.26734,-4.37703 0,-0.22989 -0.170482,-0.55404 -0.378847,-0.72035 -0.343823,-0.27443 -0.338833,-0.27969 0.05399,-0.057 0.238088,0.13497 0.462675,0.49658 0.499096,0.80358 0.03643,0.307 0.24602,0.72414 0.465788,0.92697 0.378896,0.3497 0.406692,0.33575 0.53702,-0.2694 0.158263,-0.73489 -0.15698,-1.72608 -0.756682,-2.37916 -0.367436,-0.40013 -0.409338,-0.74763 -0.363802,-3.016955 l 0.05146,-2.564746 -0.810411,-0.849304 c -0.759329,-0.795767 -0.810419,-0.935228 -0.810419,-2.212178 0,-0.974096 -0.123067,-1.568726 -0.431417,-2.084496 -0.23728,-0.396892 -0.42342,-0.919975 -0.413643,-1.16242 0.01413,-0.350936 0.05203,-0.325637 0.185806,0.124117 0.09243,0.310701 0.424449,1.033272 0.737822,1.605711 0.313364,0.572439 0.569765,1.266521 0.569765,1.542411 0,0.571606 0.727359,1.466333 1.192044,1.466333 0.170923,0 0.471538,0.250226 0.668027,0.556054 0.293671,0.457093 0.339322,0.967215 0.256507,2.866259 -0.08597,1.971344 -0.04256,2.407814 0.296065,2.975644 0.21824,0.36599 0.3968,0.86848 0.3968,1.11665 0,0.40108 0.03602,0.41449 0.324171,0.12062 0.178291,-0.18183 0.324163,-0.40567 0.324163,-0.49743 0,-0.0918 0.211453,-0.39639 0.469896,-0.67694 l 0.469896,-0.5101 -0.469896,-0.51011 c -0.258443,-0.28055 -0.469896,-0.688255 -0.469896,-0.906001 0,-0.338782 0.06134,-0.320831 0.425037,0.1244 0.233768,0.28617 0.428264,0.441783 0.432217,0.345796 0.0041,-0.09598 -0.187308,-0.387421 -0.425029,-0.647651 -0.237721,-0.260229 -0.432225,-0.74896 -0.432225,-1.086076 0,-0.337107 0.194504,-0.96609 0.432225,-1.397735 0.237721,-0.431637 0.432225,-1.063952 0.432225,-1.405133 0,-0.341181 0.194496,-0.79984 0.432217,-1.019244 0.332396,-0.306786 0.432225,-0.678822 0.432225,-1.610809 0,-1.121129 0.06216,-1.271244 0.830407,-2.004519 0.45672,-0.435952 0.940012,-0.990997 1.073983,-1.233442 0.133972,-0.242437 0.246534,-0.309194 0.250153,-0.148341 0.0033,0.160844 -0.308186,0.60715 -0.69289,0.991788 -0.687802,0.687693 -0.698216,0.728194 -0.62508,2.430633 0.07286,1.6966 0.06093,1.743831 -0.59721,2.356862 -0.369372,0.344063 -0.665004,0.755133 -0.656959,0.913486 0.0082,0.158362 0.120151,0.06481 0.249132,-0.207975 0.364194,-0.770119 0.60069,-0.588333 0.60069,0.461741 0,0.67773 -0.126335,1.074231 -0.432226,1.356552 -0.237721,0.219404 -0.432225,0.66571 -0.432225,0.991789 0,0.326086 0.194504,0.772392 0.432225,0.991797 0.536441,0.495094 0.576603,1.786172 0.07318,2.353442 -0.197452,0.22252 -0.464888,0.61942 -0.594302,0.88202 -0.129413,0.2626 -0.527047,0.64118 -0.883629,0.84128 -0.92776,0.52063 -0.983531,1.46922 -0.140505,2.38958 0.374828,0.40922 0.852982,0.69663 1.158963,0.69663 0.286476,0 0.72851,0.19728 0.98229,0.4384 0.526622,0.50036 0.970471,0.41216 1.787628,-0.35525 0.300697,-0.28238 0.932826,-0.6491 1.404731,-0.81495 1.023252,-0.35959 1.258253,-1.1342 0.544069,-1.79335 -0.243349,-0.22459 -0.442451,-0.49925 -0.442451,-0.61034 0,-0.24237 0.419638,0.17642 0.927311,0.92544 0.703214,1.0375 0.276535,2.07657 -0.921904,2.24505 -0.294178,0.0414 -0.643188,0.29766 -0.775575,0.56957 -0.132386,0.27191 -0.402265,0.67643 -0.599717,0.89895 -0.486086,0.54778 -0.452418,1.42753 0.07318,1.91265 0.358321,0.3307 0.432217,0.67882 0.432217,2.0359 0,1.35066 -0.11833,1.9133 -0.676498,3.21672 -0.372076,0.86885 -0.761076,1.61279 -0.864442,1.6532 -0.292047,0.11415 -0.228679,3.4334 0.07139,3.73942 0.143707,0.14656 0.833812,0.26448 1.547817,0.26448 0.990164,0 1.505539,0.12972 2.225947,0.56028 0.515604,0.30816 0.937456,0.69903 0.937456,0.8686 0,0.16956 0.08208,0.36002 0.182391,0.42325 0.100311,0.0632 0.05677,-0.60038 -0.09669,-1.47468 -0.374771,-2.13477 -0.365623,-4.41428 0.02361,-5.88741 0.176167,-0.6667 0.384679,-2.20398 0.463369,-3.41617 0.140939,-2.17117 0.474225,-3.19578 1.039507,-3.19578 0.605639,0 1.042406,-0.84321 0.901672,-1.74075 -0.114793,-0.73209 -0.04762,-0.97815 0.42293,-1.54842 0.332959,-0.40355 0.765372,-0.678 1.068219,-0.678 0.62502,0 1.181656,-0.7619 1.181656,-1.6174 0,-0.37121 -0.300739,-1.06456 -0.719612,-1.65905 -1.037284,-1.47219 -1.323258,-2.296394 -1.006324,-2.900337 0.320817,-0.611348 -0.06984,-2.212702 -0.676346,-2.77248 -0.769873,-0.71055 -0.347654,-3.481931 0.637714,-4.1858 0.549199,-0.392311 0.586699,-0.843123 0.142402,-1.711919 -0.493362,-0.96475 -0.385372,-0.997487 0.232322,-0.07047 0.420124,0.630532 0.521212,0.990814 0.415597,1.481219 -0.07676,0.356416 -0.229331,0.704611 -0.339048,0.773767 -0.387069,0.243961 -0.218718,1.998921 0.250055,2.606687 0.717855,0.930713 0.382891,1.083361 -0.503567,0.229484 -0.44573,-0.429346 -0.810415,-0.693857 -0.810415,-0.587799 0,0.106058 0.290143,0.411603 0.644764,0.67898 1.046494,0.78906 1.368254,1.659023 1.247926,3.374115 -0.09424,1.343249 -0.05549,1.539129 0.388662,1.964663 0.271337,0.25997 0.610207,0.7604 0.753044,1.11209 0.142839,0.35168 0.333816,0.63943 0.424395,0.63943 0.20563,0 0.424358,-0.80421 0.428259,-1.57459 0.0043,-0.855905 1.089881,-1.951793 1.933382,-1.951793 0.428382,0 0.726485,-0.132931 0.812852,-0.362465 0.130252,-0.346153 -0.02748,-0.532563 -0.906867,-1.071765 -0.314886,-0.193081 -0.325493,-0.304062 -0.0813,-0.850645 0.244509,-0.547273 0.23302,-0.664243 -0.08881,-0.90424 -0.406857,-0.303404 -0.490408,-0.896318 -0.156006,-1.107092 0.12358,-0.07789 0.15808,0.01299 0.08184,0.215597 -0.07248,0.19264 0.03856,0.542234 0.246775,0.776866 0.266623,0.300455 0.339874,0.623885 0.247724,1.093781 -0.114965,0.586225 -0.07119,0.667177 0.360813,0.667177 0.67931,0 1.01032,0.403139 1.01032,1.230468 0,0.633815 -0.114702,0.756899 -1.188612,1.275459 l -1.188612,0.573942 v 1.1993 c 0,1.21306 -0.219145,1.64222 -1.077915,2.11095 -0.248502,0.13562 -0.355675,0.37285 -0.287888,0.63722 0.229696,0.89577 -0.86669,1.87019 -2.308087,2.05131 -0.491104,0.0617 -0.540278,0.16315 -0.540278,1.11453 0,0.92734 -0.09238,1.13332 -0.810416,1.80705 l -0.810419,0.76041 -0.05399,3.81311 c -0.117635,8.30208 -0.07229,8.98754 0.706318,10.67616 0.383462,0.83165 0.965305,1.80963 1.292985,2.17328 0.327681,0.36366 0.80622,1.25627 1.063419,1.98359 0.2572,0.72731 0.406228,1.02485 0.331173,0.66119 -0.385205,-1.86644 -0.363199,-2.59029 0.10455,-3.43905 0.362168,-0.65718 0.416012,-0.94404 0.240108,-1.27924 -0.124713,-0.23765 -0.22675,-0.74267 -0.22675,-1.12227 0,-0.3796 -0.105519,-0.89124 -0.234487,-1.137 -0.324435,-0.61824 -0.105679,-1.2473 0.791721,-2.2767 0.744985,-0.85456 0.807636,-0.87996 2.242949,-0.90934 1.742353,-0.0356 1.954263,-0.13662 1.954263,-0.93079 0,-0.44523 -0.361394,-0.96475 -1.404723,-2.01931 -1.614862,-1.63226 -1.814498,-2.39574 -0.864444,-3.30598 0.656032,-0.62853 0.703299,-1.54441 0.108055,-2.09378 -0.299623,-0.27654 -0.431226,-0.6758 -0.428978,-1.30145 0.0029,-0.78637 0.155816,-1.07021 1.188611,-2.20521 1.219662,-1.34037 1.478302,-2.12594 0.915229,-2.77988 -0.148577,-0.17254 -0.05133,-0.12742 0.216111,0.10028 0.62677,0.53366 0.654222,1.71718 0.05403,2.32928 -0.261599,0.26679 -0.432223,0.73467 -0.432223,1.18521 0,0.88444 -0.428998,1.36656 -0.85282,0.95843 -0.22804,-0.21959 -0.23893,-0.18717 -0.0581,0.17302 0.122401,0.24379 0.426056,0.63108 0.674789,0.86064 0.737988,0.68113 0.561786,3.1422 -0.26423,3.69061 -0.227585,0.15111 0.632227,1.08051 1.658747,1.79302 0.485994,0.33733 0.5705,0.55577 0.5705,1.47468 0,1.1976 0.301208,1.68401 0.363977,0.58777 0.07536,-1.31607 0.342651,-2.43917 0.656747,-2.7595 0.202781,-0.20681 0.269419,-0.54361 0.187301,-0.94667 -0.07011,-0.34411 -0.185862,-0.91437 -0.257232,-1.26725 -0.103643,-0.51245 -0.03467,-0.69349 0.342676,-0.89945 0.259842,-0.14181 0.520063,-0.20929 0.578273,-0.14992 0.05821,0.0594 -0.105624,0.17638 -0.364072,0.26003 -0.400849,0.12975 -0.447006,0.25417 -0.314091,0.84662 0.19143,0.8533 0.188634,2.79931 -0.0072,4.99228 -0.138517,1.55132 -0.20225,1.7106 -1.03616,2.58969 -0.8379,0.88328 -0.957788,0.93669 -2.102565,0.93669 -1.900695,0 -2.087975,0.31996 -2.257571,3.85698 -0.07556,1.57584 -0.131711,3.60902 -0.124781,4.51816 0.01267,1.66109 -0.113383,2.13605 -1.203852,4.53628 -0.279884,0.61605 -0.572027,1.45907 -0.6492,1.87338 -0.07718,0.41431 -0.223884,0.86264 -0.326019,0.99627 -0.102137,0.13364 -0.185704,6.25796 -0.185704,13.6096 v 13.36661 h 1.512779 1.512778 v -13.66466 -13.6647 h 3.349725 c 3.304974,0 3.349724,0.007 3.349724,0.48384 0,0.82103 -1.03779,1.72014 -1.985434,1.72014 h -0.824012 v 13.84186 13.84187 l -0.712651,0.70443 -0.712648,0.70443 h -4.22022 c -4.131943,0 -4.230073,-0.0107 -4.690134,-0.5101 z m 87.957186,-1.50586 c -0.47632,-0.59583 -0.48054,-0.62882 -0.0805,-0.62882 0.55303,0 0.99367,0.54789 0.76234,0.94789 -0.14131,0.24432 -0.28535,0.17692 -0.68185,-0.31907 z m -0.79398,0.25278 c -0.0734,-0.12122 -0.0306,-0.22041 0.0953,-0.22041 0.12588,0 0.22887,0.0992 0.22887,0.22041 0,0.12121 -0.0429,0.22039 -0.0953,0.22039 -0.0524,0 -0.1554,-0.0992 -0.22887,-0.22039 z m -1.63247,-1.2453 c -0.40961,-0.44247 -0.60218,-0.72091 -0.42793,-0.61875 0.17426,0.10215 0.66051,0.24235 1.08056,0.31155 0.57908,0.0954 0.78043,0.24502 0.83279,0.61877 0.10802,0.77102 -0.62569,0.61712 -1.48542,-0.31157 z m 3.56859,0.56943 c -0.0783,-0.12928 -0.0906,-0.28798 -0.0271,-0.35267 0.15481,-0.15787 0.5763,0.12031 0.5763,0.38034 0,0.28167 -0.37311,0.26287 -0.54917,-0.0276 z m -1.44987,-0.79846 c -0.22914,-0.0611 -0.37819,-0.31158 -0.37819,-0.63562 0,-0.66399 0.14236,-0.67239 0.66053,-0.039 0.62891,0.76884 0.57297,0.90251 -0.28234,0.67456 z m -1.50145,-0.30044 c -0.4395,-0.0746 -0.9347,-0.25045 -1.10044,-0.39074 -0.16574,-0.14028 -0.34451,-0.21105 -0.39724,-0.15726 -0.0528,0.0538 -0.0959,-0.0958 -0.0959,-0.33251 0,-0.34875 0.15054,-0.43031 0.79419,-0.43031 0.8817,0 1.79826,0.61221 1.67667,1.11993 -0.0592,0.24735 -0.27206,0.29365 -0.87729,0.19089 z m 0.17589,-1.50446 c -0.3389,-0.36076 -0.89652,-0.77434 -1.23914,-0.91907 -0.43961,-0.18571 -0.62294,-0.41744 -0.62294,-0.78741 v -0.52426 h -3.09594 c -2.95674,0 -3.11707,-0.0229 -3.56584,-0.5101 -0.42193,-0.45803 -0.46989,-0.7505 -0.46989,-2.86517 0,-2.14221 0.036,-2.35508 0.39873,-2.35508 0.2193,0 0.57475,-0.19837 0.78989,-0.4408 0.21513,-0.24244 0.59773,-0.4408 0.85023,-0.4408 0.25249,0 0.59926,-0.19836 0.7706,-0.44079 0.17134,-0.24244 0.48455,-0.4408 0.69604,-0.4408 0.33657,0 0.38452,0.21985 0.38452,1.76319 v 1.76318 h 2.80944 2.80944 v -1.76318 -1.76319 h 1.945 1.945 v 3.26755 c 0,3.13058 -0.021,3.28765 -0.50017,3.74678 -0.36663,0.35126 -0.77055,0.47921 -1.51278,0.47921 h -1.0126 v 1.21219 c 0,0.89889 -0.0791,1.21219 -0.30616,1.21219 -0.16838,0 -0.34015,0.10401 -0.3817,0.23114 -0.0416,0.12712 -0.35283,-0.0641 -0.69173,-0.42478 z m -1.86208,-0.46755 c 0,-0.55574 0.24668,-0.55775 0.89454,-0.007 l 0.51018,0.43346 -0.70236,0.007 c -0.56068,0.006 -0.70236,-0.0815 -0.70236,-0.43346 z M 49.790022,151.48861 v -9.03634 h 5.835002 c 4.581259,0 5.835003,0.0603 5.835003,0.28068 0,0.15436 -0.755841,1.04697 -1.679643,1.98358 l -1.679644,1.70291 h -2.210358 -2.210359 v 1.54279 1.5428 h 1.727059 c 1.493009,0 1.763638,-0.0597 1.996984,-0.4408 0.16399,-0.2678 0.503979,-0.4408 0.866278,-0.4408 h 0.596348 v 2.86518 2.86518 h -0.596348 c -0.362299,0 -0.702288,-0.173 -0.866278,-0.4408 -0.233346,-0.38106 -0.503975,-0.44079 -1.996984,-0.44079 h -1.727059 v 1.54278 1.54279 h 4.168265 4.168264 l 1.018405,1.05446 c 0.889237,0.92073 1.018404,1.17231 1.018404,1.98359 v 0.92912 h -7.13167 -7.131669 z m 15.560007,8.69151 c 0,-0.18966 0.291749,-0.59519 0.648333,-0.90118 l 0.648334,-0.55637 v -7.19011 -7.19011 l 0.909441,-0.94504 0.909441,-0.94504 h 4.444083 4.444083 l 1.778144,1.82289 1.778148,1.8229 v 3.64118 3.64118 l -0.926653,0.92748 c -0.75275,0.75342 -1.077207,0.92748 -1.72889,0.92748 -0.508168,0 -0.802237,0.10352 -0.802237,0.28239 0,0.15533 0.562009,0.84958 1.248907,1.5428 0.999904,1.0091 1.387689,1.26039 1.945,1.26039 0.691237,0 0.696093,0.007 0.696093,1.10199 v 1.10199 h -3.025555 -3.025559 v -1.76318 -1.76319 H 72.91392 70.536698 v 1.76319 1.76318 h -2.593335 c -2.208671,0 -2.593334,-0.0512 -2.593334,-0.34482 z m 11.274794,-7.51348 c 0.339287,-0.31314 0.395211,-0.72389 0.395211,-2.90293 0,-3.28899 -0.0424,-3.34427 -2.565379,-3.34427 h -1.850054 l -1.033954,1.03862 -1.033949,1.0386 v 2.26737 2.26737 h 2.846457 c 2.345381,0 2.916024,-0.0642 3.241668,-0.36476 z m 7.792248,6.03541 -1.778148,-1.82288 v -7.70475 -7.70475 l 1.945001,1.9744 1.945001,1.97439 v 5.56966 5.56965 h 2.377225 2.377226 v -5.79005 -5.79005 l 1.945,-1.9744 1.945001,-1.97439 v 7.93461 7.93461 l -1.787432,1.81342 -1.787432,1.81342 h -2.701649 -2.701649 z m 13.394638,0.87786 -0.909439,-0.94503 v -8.09131 -8.0913 h 5.40278 5.40278 v 0.94499 c 0,0.83663 -0.11854,1.06405 -1.03395,1.98358 l -1.03396,1.0386 h -2.42382 -2.42383 v 1.54279 1.5428 h 2.59333 2.59334 V 150.45 c 0,0.83664 -0.11854,1.06405 -1.03395,1.98358 l -1.03396,1.03862 h -1.55938 -1.55938 v 1.54278 1.54279 h 5.18667 5.18667 v 1.98358 1.98359 h -6.22223 -6.222231 z m 33.713351,0 -0.90944,-0.94503 v -6.98931 -6.98932 h -0.86445 -0.86444 v -1.10198 -1.102 h 2.80944 2.80945 v 6.67743 6.67742 l 0.86445,0.86085 c 0.84093,0.83745 0.86444,0.90159 0.86444,2.35892 v 1.49805 h -1.9 -1.90001 z m 6.00612,-0.59776 v -1.54278 h 0.86444 0.86445 v -4.29778 -4.29776 h 1.0678 c 0.58729,0 1.1279,0.0992 1.20136,0.2204 0.0734,0.12121 0.33592,0.22039 0.58324,0.22039 0.91993,0 1.02344,0.50996 1.03072,5.07838 l 0.007,4.30698 -0.92665,0.92748 -0.92665,0.92748 h -1.88279 -1.8828 z m 6.91556,0.4408 v -1.10199 h 0.86444 0.86444 v -6.0015 -6.00149 l 1.88647,-1.93285 1.88647,-1.93285 h 3.34995 3.34995 l 1.89525,1.9239 1.89525,1.92389 v 6.01045 6.01045 h 0.86445 0.86444 v 1.10199 1.10199 h -2.80944 -2.80945 v -3.52637 -3.52637 h -2.55093 -2.55095 l -0.69072,0.72678 -0.69074,0.72679 v 2.79958 2.79959 h -2.80944 -2.80944 z m 12.10222,-11.90151 v -1.98359 h -2.52901 -2.52902 l -0.71265,0.70443 c -0.64493,0.63749 -0.71266,0.826 -0.71266,1.98359 v 1.27916 h 3.24167 3.24167 z m 6.91556,3.96717 v -9.03634 h 1.945 1.945 v 3.52638 3.52638 h 1.51278 1.51278 v -3.52638 -3.52638 h 1.945 1.94501 v 3.46667 3.46667 l -1.77816,1.8229 -1.77814,1.82289 h 1.77814 1.77816 v 3.74677 3.74677 h -1.94501 -1.945 v -3.52637 -3.52637 h -1.51278 -1.51278 v 2.42437 2.42439 h 0.86445 0.86445 v 1.10199 1.10199 h -2.80946 -2.80944 z m 12.96667,8.30902 c 0,-0.40003 0.0911,-0.82154 0.20247,-0.93669 0.11136,-0.11516 0.23292,-0.64798 0.27014,-1.18405 0.0373,-0.53606 0.16772,-1.00812 0.28999,-1.049 0.36881,-0.12332 0.96629,1.15275 0.96629,2.06373 0,0.46951 0.15139,1.07408 0.33642,1.34349 0.33556,0.48857 0.33334,0.48983 -0.86444,0.48983 h -1.20087 z m 2.3232,0.23877 c -0.21434,-0.27357 -0.37819,-0.85438 -0.37819,-1.34057 0,-0.79106 -0.53716,-2.14888 -0.91848,-2.32172 -0.0891,-0.0404 -0.16208,-0.31315 -0.16208,-0.6061 0,-0.51251 0.0571,-0.53263 1.51277,-0.53263 h 1.51279 v 0.66119 0.6612 h 6.05111 6.05111 v 0.75839 c 0,0.41711 -0.0973,0.81968 -0.21611,0.8946 -0.11886,0.0749 -0.21611,0.36616 -0.21611,0.64722 0,0.28104 -0.14588,0.63446 -0.32417,0.78537 -0.17829,0.15091 -0.32416,0.37478 -0.32416,0.4975 0,0.12273 0.19449,-0.0291 0.43222,-0.33724 0.23772,-0.30821 0.43222,-0.65657 0.43222,-0.77413 0,-0.11757 0.14587,-0.33722 0.32417,-0.48813 0.18616,-0.15756 0.32416,-0.63819 0.32416,-1.12897 v -0.85461 h 1.25002 c 1.22255,0 1.2748,0.0256 2.37723,1.16403 0.95215,0.98325 1.1272,1.29129 1.1272,1.98358 v 0.81956 l -9.23875,-0.003 -9.23876,-0.003 -0.37819,-0.4827 z M 32.066859,159.14745 c -0.485431,-0.74731 -0.689557,-1.81721 -0.794843,-4.16624 -0.07825,-1.74544 -0.170498,-2.1969 -0.513685,-2.51364 -0.341356,-0.31505 -0.418323,-0.68393 -0.418323,-2.00492 0,-1.7479 0.224979,-2.02042 0.972505,-1.17803 0.215137,0.24245 0.570583,0.4408 0.789885,0.4408 0.375752,0 0.398728,0.28579 0.398728,4.95897 0,2.72742 -0.02524,4.95896 -0.05611,4.95896 -0.03087,0 -0.201022,-0.22315 -0.378194,-0.4959 z m 144.402091,-2.52766 c -0.0322,-1.9214 0.01,-2.23353 0.28641,-2.12531 0.36664,0.14349 0.46081,1.83382 0.1217,2.18452 -0.11136,0.11515 -0.24024,0.65568 -0.28641,1.20116 -0.0461,0.54549 -0.10093,-0.0217 -0.1217,-1.26037 z M 28.611123,150.17922 c 0,-7.91182 0.02875,-8.12928 0.939008,-7.10349 0.307729,0.34678 0.35766,1.01889 0.35766,4.8146 0,4.13165 0.02745,4.43686 0.432217,4.81047 0.237729,0.21941 0.432225,0.55986 0.432225,0.75657 0,0.19671 -0.194496,0.5275 -0.432225,0.73508 -0.298548,0.2607 -0.432217,0.65016 -0.432217,1.25931 0,0.64318 -0.11699,0.95638 -0.432225,1.15716 -0.237721,0.1514 -0.432217,0.39434 -0.432217,0.53985 0,0.14552 -0.09726,0.32588 -0.216117,0.4008 -0.142458,0.0898 -0.216109,-2.4221 -0.216109,-7.37035 z m 148.630487,4.15956 -0.81042,-0.43632 v -6.38628 -6.38629 h 3.24167 3.24167 l -0.009,0.93669 c -0.007,0.71104 -0.16285,1.12052 -0.64833,1.69976 -0.66493,0.79334 -0.89427,1.40158 -0.29996,0.79546 0.42262,-0.431 0.87356,-0.4454 1.02879,-0.0328 0.0649,0.17243 0.34273,0.36245 0.61743,0.42228 0.27471,0.0598 -0.13266,0.10569 -0.90526,0.10195 -2.60154,-0.0127 -2.37722,-0.16238 -2.37722,1.58665 v 1.54279 h 2.54555 2.54555 l 1.34445,1.38342 c 0.98728,1.01589 1.34445,1.54286 1.34445,1.98358 v 0.60017 h -3.89 -3.89 v 1.32239 1.32239 l -1.13458,-0.01 c -0.69751,-0.006 -1.44679,-0.17782 -1.94501,-0.44606 z m -63.91489,-0.64619 c 0,-0.58773 0.072,-0.66119 0.64834,-0.66119 0.74504,0 0.85205,0.40485 0.25311,0.95763 -0.59068,0.54518 -0.90145,0.44298 -0.90145,-0.29644 z m 0,-8.75249 v -5.00572 l 0.90944,-0.94503 0.90943,-0.94504 h 2.76447 c 3.15882,0 3.26111,0.0771 1.9,1.43259 -0.70854,0.7056 -0.86445,1.01178 -0.86445,1.69772 0,0.82941 -0.007,0.83685 -0.86444,0.83685 h -0.86444 v 3.52638 c 0,3.37944 -0.018,3.52638 -0.43223,3.52638 -0.28815,0 -0.43223,0.14693 -0.43223,0.4408 0,0.39881 -0.14407,0.44079 -1.51277,0.44079 h -1.51278 z m 10.37334,4.56493 c 0,-0.29387 -0.14407,-0.4408 -0.43222,-0.4408 -0.41423,0 -0.43223,-0.14694 -0.43223,-3.52638 v -3.52638 h -1.72888 -1.7289 v -0.72666 c 0,-0.55736 0.2014,-0.92721 0.86445,-1.58751 0.47545,-0.47347 0.86445,-1.03909 0.86445,-1.25693 0,-0.36084 0.24983,-0.39606 2.80944,-0.39606 h 2.80944 v 5.95075 5.95076 h -1.51277 c -1.3687,0 -1.51278,-0.042 -1.51278,-0.44079 z m 19.15574,-0.33061 c -0.0684,-0.18182 -0.25393,-0.33059 -0.41225,-0.33059 -0.40291,0 -1.45087,-0.51665 -1.45291,-0.7163 -8.1e-4,-0.0909 0.14886,-0.1653 0.33285,-0.1653 0.4676,0 1.3793,-1.11378 1.38753,-1.69507 0.004,-0.26559 0.10407,-0.54419 0.22293,-0.61911 0.13801,-0.087 0.21612,0.58544 0.21612,1.86038 0,1.98354 -0.0559,2.29966 -0.29427,1.66599 z M 31.682302,149.00913 c -0.318396,-0.39263 -0.08495,-1.35661 0.403923,-1.66798 0.388388,-0.24736 0.414901,-0.19371 0.414901,0.83962 0,1.12435 -0.317947,1.44601 -0.818824,0.82836 z m 107.577768,-3.80188 v -3.19578 h 2.80944 2.80945 v 1.102 1.10199 h -0.86445 c -0.76613,0 -0.86444,0.0596 -0.86444,0.52401 0,0.2882 -0.14588,0.64748 -0.32417,0.79838 -0.17829,0.15091 -0.32416,0.49289 -0.32416,0.75997 0,0.51137 -0.81596,1.44402 -1.26336,1.44402 -0.14464,0 -0.31897,0.14876 -0.38738,0.3306 -0.0768,0.20397 -0.40523,0.33059 -0.85767,0.33059 h -0.73326 z m 44.84307,-0.33059 c -0.0734,-0.12122 -0.2737,-0.22041 -0.44498,-0.22041 -0.17127,0 -0.49799,-0.19028 -0.72605,-0.42286 -0.40878,-0.41688 -0.40878,-0.42827 0,-0.80555 0.28758,-0.26542 0.41464,-0.67613 0.41464,-1.34032 v -0.95763 h 3.45778 c 4.18069,0 4.20274,0.0277 1.88589,2.37479 l -1.57189,1.59237 h -1.44091 c -0.79251,0 -1.50102,-0.0992 -1.57448,-0.22039 z"
       id="path4496-1-0"
       inkscape:connector-curvature="0" />
    <path
       style="fill:url(#linearGradient6020);fill-opacity:1;stroke-width:0.21824427"
       d="m 101.61444,205.11624 c -0.25573,-0.9094 -0.56209,-7.15145 -0.79068,-16.10976 -0.11576,-4.53618 -0.21137,-5.83088 -0.43715,-5.91924 -0.15893,-0.0622 -0.28898,-0.34732 -0.28898,-0.63359 0,-0.70915 0.52831,-0.48035 0.87781,0.38017 0.14798,0.36434 0.49726,0.81493 0.77618,1.0013 0.33407,0.22324 0.50712,0.55142 0.50712,0.96172 0,0.34255 0.0973,0.68413 0.21612,0.75905 0.31778,0.20029 0.26313,1.33197 -0.10805,2.23798 -0.19032,0.46449 -0.30767,1.34895 -0.2842,2.1418 l 0.0399,1.35058 0.0671,-1.21219 c 0.0369,-0.66671 0.20859,-1.70809 0.38151,-2.31418 0.17292,-0.6061 0.41486,-1.44913 0.53763,-1.87339 0.24663,-0.85226 0.16097,4.86999 -0.20292,13.5545 -0.19473,4.64741 -0.44093,6.50175 -0.86328,6.50175 -0.10768,0 -0.30037,-0.37192 -0.4282,-0.8265 z m -17.941265,-26.2825 v -12.1219 h 5.402779 5.402785 v 1.98358 1.98358 h -3.457784 -3.45778 v 1.54278 1.54279 h 1.512779 1.512775 v -0.88159 -0.88159 h 1.080567 1.080551 v 3.74677 3.74677 h -1.080551 -1.080567 v -0.88159 -0.8816 h -1.512775 -1.512779 v 5.01959 5.01958 l -1.571889,1.59237 c -0.864537,0.8758 -1.739787,1.59237 -1.945,1.59237 -0.348886,0 -0.373111,-0.78707 -0.373111,-12.12191 z m 96.601705,9.80474 c 0,-0.42592 -0.0829,-0.94661 -0.18431,-1.15709 -0.77072,-1.60033 -0.92999,-2.0221 -0.82746,-2.19127 0.0644,-0.10621 -0.21654,-0.15339 -0.62422,-0.10485 -0.71099,0.0846 -0.74211,0.0581 -0.76277,-0.65216 -0.0118,-0.40723 -0.10449,-0.98836 -0.20586,-1.2914 l -0.18433,-0.551 0.0137,0.551 c 0.007,0.30304 0.003,0.87333 -0.0102,1.26728 l -0.0239,0.7163 h -5.835 -5.83499 v -3.74677 -3.74678 h 1.945 1.945 v 1.05876 c 0,0.90828 0.10127,1.15888 0.71265,1.76319 0.68969,0.68175 1.44846,0.9353 1.44846,0.48403 0,-0.13958 1.58482,-0.2204 4.32222,-0.2204 h 4.32222 v 4.29778 c 0,2.36376 -0.0486,4.29776 -0.10805,4.29776 -0.0595,0 -0.10805,-0.34847 -0.10805,-0.77438 z M 46.502047,183.24171 c 0,-3.37945 0.018,-3.52638 0.432223,-3.52638 0.237722,0 0.432222,0.1211 0.432222,0.26911 0,0.14801 0.556143,0.84226 1.235875,1.54278 l 1.235873,1.27369 h 5.031352 5.03135 v -4.18757 -4.18757 h -4.877939 c -3.939398,0 -4.937339,-0.0606 -5.186669,-0.31485 -0.455189,-0.46423 -0.455189,-10.80759 0,-11.2718 0.253159,-0.25818 1.42016,-0.31486 6.483336,-0.31486 h 6.174606 v 2.64478 2.64478 H 61.41372 c -1.056543,0 -1.080555,-0.0147 -1.080555,-0.66119 v -0.6612 h -3.457779 -3.45778 v 1.98359 1.98357 h 4.877939 c 3.939398,0 4.937339,0.0606 5.186669,0.31486 0.254328,0.25938 0.30873,1.52257 0.30873,7.16875 v 6.8539 l -0.966813,0.98599 -0.966814,0.98599 h -7.677634 -7.677636 z m 56.113523,2.27402 c -0.0774,-0.079 -0.14071,-0.42223 -0.14071,-0.76289 0,-0.4105 -0.17484,-0.73621 -0.51843,-0.9658 -0.28513,-0.19053 -0.63884,-0.64292 -0.78603,-1.0053 -0.14718,-0.36238 -0.44876,-0.75775 -0.67018,-0.8786 -0.3762,-0.20533 -0.40259,-0.58033 -0.40259,-5.72194 V 170.679 H 99.4493 c -0.607396,0 -0.648334,0.0532 -0.648334,0.84317 0,1.00625 -0.697856,1.80161 -1.580741,1.80161 h -0.580376 v -3.30597 -3.30597 h 1.728892 1.728889 v -1.102 c 0,-0.95506 -0.0577,-1.10199 -0.432222,-1.10199 -0.336177,0 -0.432225,-0.14694 -0.432225,-0.6612 v -0.66119 h 2.809447 2.80944 v 0.66119 c 0,0.51426 -0.096,0.6612 -0.4322,0.6612 -0.3746,0 -0.43223,0.14693 -0.43223,1.10199 v 1.102 h 1.72888 1.72889 v 3.30597 3.30597 h -0.61066 c -0.8588,0 -1.55045,-0.81747 -1.55045,-1.8325 0,-0.7556 -0.0452,-0.81228 -0.64833,-0.81228 h -0.64834 v 6.14757 c 0,5.2612 -0.0467,6.16587 -0.32417,6.27444 -0.20713,0.0811 -0.32664,0.42776 -0.33103,0.96027 -0.007,0.83011 -0.44914,1.72748 -0.71686,1.45445 z m -35.096708,-1.06091 c -0.204569,-0.23696 -0.270139,-2.09552 -0.270139,-7.65683 v -7.34391 l 1.356511,-1.37112 1.356508,-1.37112 h 4.430708 4.430709 l 1.344451,1.38341 1.344452,1.38343 v 7.33804 c 0,6.06579 -0.05353,7.39265 -0.308729,7.65292 -0.455786,0.46483 -13.282381,0.45093 -13.684471,-0.0148 z m 10.103199,-8.92706 V 170.679 h -2.42214 -2.422138 l -0.81953,0.81612 -0.819528,0.81613 v 4.03264 4.03263 h 3.241668 3.241668 z m 34.627049,7.43384 -1.77814,-1.82289 v -6.55225 -6.55223 h -0.86444 c -0.81643,0 -0.86445,-0.0367 -0.86445,-0.6612 v -0.66119 h 2.80945 2.80944 v 7.05273 7.05275 h 1.51278 1.51278 v -6.15278 c 0,-4.70673 0.0635,-6.183 0.27014,-6.28135 0.21611,-0.10285 0.21611,-0.15428 0,-0.25713 -0.14858,-0.0707 -0.27014,-0.41785 -0.27014,-0.7714 v -0.64282 h 1.945 1.945 v 0.64282 c 0,0.35355 -0.12156,0.70068 -0.27014,0.7714 -0.21612,0.10285 -0.21612,0.15428 0,0.25713 0.20665,0.0983 0.27014,1.57462 0.27014,6.28135 v 6.15278 h 1.52162 1.52163 l -0.0735,-6.77725 c -0.0404,-3.72748 -0.153,-7.00039 -0.25016,-7.27314 -0.1368,-0.38405 -0.0978,-0.49589 0.17273,-0.49589 0.19216,0 0.34938,0.0992 0.34938,0.22039 0,0.12123 0.20024,0.22041 0.44497,0.22041 0.24474,0 0.38488,-0.0992 0.31142,-0.22041 -0.0734,-0.12122 -0.0387,-0.22039 0.0773,-0.22039 0.11596,0 0.259,0.12397 0.31785,0.2755 0.0591,0.152 0.23366,-0.0456 0.38956,-0.4408 0.34546,-0.87579 0.56909,-0.91314 0.65968,-0.1102 0.0668,0.59209 0.1046,0.60759 1.63519,0.67085 1.55025,0.0641 1.56681,0.0711 1.56681,0.67156 0,0.41755 -0.26963,0.87533 -0.86444,1.46767 l -0.86445,0.86086 v 5.74558 5.74559 l -1.78743,1.81342 -1.78744,1.81342 h -1.88645 -1.88646 v -0.94855 c 0,-0.79473 -0.12267,-1.06982 -0.75639,-1.69623 l -0.75639,-0.74766 -0.75638,0.74766 c -0.63372,0.62641 -0.7564,0.9015 -0.7564,1.69623 v 0.94855 h -1.89574 -1.89575 z m 17.23964,0.7209 v -1.10199 h 0.86445 0.86444 v -6.12092 -6.12092 l 1.78744,-1.81341 1.78743,-1.81342 h 3.56609 3.56609 l 1.77815,1.82289 1.77814,1.82288 v 6.11145 6.11145 h 0.86445 0.86445 v 1.10199 1.10199 h -3.6739 -3.67389 v -1.10199 -1.10199 h 0.86445 0.86444 v -2.42438 -2.42439 h -3.24167 -3.24166 v 3.52638 3.52637 h -0.64834 -0.64833 v -2.16982 c 0,-1.88992 -0.0558,-2.22129 -0.43223,-2.56874 -0.35748,-0.32994 -0.43221,-0.67882 -0.43221,-2.01775 0,-1.39136 0.0532,-1.62009 0.37819,-1.62787 0.20801,-0.005 0.81238,-0.40926 1.34306,-0.89842 0.8511,-0.78452 0.88932,-0.85645 0.32417,-0.61009 -0.35239,0.1536 -0.84147,0.45872 -1.08685,0.67802 -0.7145,0.63856 -0.95857,0.49513 -0.95857,-0.56334 0,-0.62834 -0.14993,-1.15645 -0.43223,-1.52245 -0.23772,-0.3082 -0.43222,-0.66285 -0.43222,-0.7881 0,-0.12525 -0.0882,-0.28331 -0.19595,-0.35124 -0.30668,-0.19329 -0.009,0.71385 0.32736,0.99886 0.2312,0.19569 0.30081,0.97993 0.30081,3.38923 0,2.85472 0.0386,3.17026 0.43223,3.53355 0.37348,0.3447 0.43221,0.67882 0.43221,2.45854 v 2.05962 h -1.945 -1.945 z m 12.10223,-11.46072 V 170.679 h -3.24167 -3.24166 v 1.54278 1.54279 h 3.24166 3.24167 z m 6.91556,4.14454 v -8.41818 l 0.58072,-0.61815 0.5807,-0.61815 h 4.65572 4.6557 l 1.89525,1.92389 1.89525,1.92387 v 3.58608 3.58606 h -1.72889 -1.72889 v 0.6612 c 0,0.54276 0.0889,0.66119 0.49642,0.66119 0.2944,0 0.83993,0.35878 1.34053,0.8816 0.46426,0.48488 1.01887,0.88159 1.23247,0.88159 0.34498,0 0.38836,0.22161 0.38836,1.98359 v 1.98358 h -1.945 -1.945 v -1.76319 -1.76318 h -3.24167 -3.24166 l 0.0171,0.9367 c 0.009,0.51517 0.0661,0.81271 0.12606,0.66119 0.0599,-0.15152 0.44128,-0.2755 0.84738,-0.2755 h 0.73838 v 1.10199 1.10199 h -2.80944 -2.80945 v -8.41817 z m 9.66069,0.22019 0.71265,-0.70442 v -2.60155 -2.60154 h -3.24167 -3.24166 v 3.30597 3.30598 h 2.52901 2.52902 z m 7.62821,-2.16074 v -1.98359 h 0.86445 c 0.47544,0 0.86444,-0.0992 0.86444,-0.2204 0,-0.12121 -0.389,-0.22039 -0.86444,-0.22039 h -0.86445 v -2.86518 -2.86517 h 6.35727 c 4.88361,0 6.38254,0.0639 6.46627,0.2755 0.06,0.15152 0.11668,0.0523 0.12607,-0.2204 0.0138,-0.4002 0.14218,-0.4959 0.66539,-0.4959 h 0.64834 v 2.42438 2.42438 h -0.64834 c -0.35658,0 -0.64833,-0.0992 -0.64833,-0.22041 0,-0.13992 -1.65685,-0.22039 -4.53834,-0.22039 h -4.53833 v 1.10199 1.10199 h 2.59333 2.59334 v 1.102 c 0,0.91998 -0.0652,1.10199 -0.39456,1.10199 -0.48497,0 -1.33433,0.88587 -1.33433,1.3917 0,0.33381 -0.37254,0.37148 -3.67389,0.37148 h -3.67389 z M 27.268154,170.45859 c 0,-0.93907 0.06126,-1.10197 0.414206,-1.10197 0.227821,0 0.453813,0.12115 0.502217,0.26923 0.05628,0.17212 0.296612,0.0565 0.666344,-0.32058 l 0.578342,-0.58981 v -5.66258 -5.66258 l 0.756388,-0.94138 c 0.540778,-0.67305 0.756388,-1.15871 0.756388,-1.70381 0,-0.41932 0.145881,-0.88588 0.324172,-1.03678 0.277139,-0.23458 0.324914,-0.16654 0.329316,0.46891 0.0024,0.4088 0.108095,1.14 0.233907,1.62487 0.125803,0.48488 0.283568,1.17913 0.350586,1.5428 0.06698,0.36365 0.350758,0.96808 0.630544,1.34319 0.50581,0.67812 0.508702,0.71663 0.508702,6.77725 v 6.09524 h -3.025561 -3.025551 z m 9.546559,-3.81606 -0.469896,-0.51011 v -14.03618 -14.0362 h -1.512776 -1.512775 v 3.9777 c 0,3.87666 -0.01274,3.99002 -0.502356,4.46306 -0.27629,0.26696 -0.564987,0.65894 -0.641554,0.87107 -0.07653,0.21214 -0.336741,0.3857 -0.578203,0.3857 -0.41651,0 -0.439005,-0.1335 -0.439005,-2.60636 0,-2.43943 -0.03202,-2.63705 -0.500175,-3.08558 -0.275098,-0.26356 -0.664098,-0.47921 -0.864443,-0.47921 -0.322512,0 -0.364267,-0.32117 -0.364267,-2.80174 v -2.80174 l 0.90944,-0.94503 0.90944,-0.94504 h 3.170215 c 2.645813,0 3.217801,-0.0585 3.457923,-0.35355 0.158247,-0.19446 0.510532,-0.43995 0.782852,-0.54554 0.458451,-0.17776 0.495134,-0.32102 0.495134,-1.93364 0,-1.27927 -0.08607,-1.8145 -0.324167,-2.01603 -0.178293,-0.15091 -0.324165,-0.4147 -0.324165,-0.5862 0,-0.28611 -1.145993,-1.53019 -2.40383,-2.60958 -0.651788,-0.55932 -1.052313,-1.28701 -1.059795,-1.92549 -0.0033,-0.27439 -0.367805,-0.89561 -0.810182,-1.38049 -0.801892,-0.87891 -0.808941,-0.88145 -2.317347,-0.83617 -1.506495,0.0452 -1.516975,0.0415 -2.431495,-0.87238 -0.79481,-0.79424 -0.918465,-1.04369 -0.918465,-1.85286 0,-0.51428 0.105571,-1.43712 0.234617,-2.05075 0.224162,-1.066 0.20491,-1.16145 -0.432225,-2.14243 -0.815892,-1.25621 -0.851855,-2.15255 -0.126563,-3.15512 0.297151,-0.41077 0.540279,-0.64823 0.540279,-0.5277 0,0.12052 -0.109728,0.33104 -0.24383,0.4678 -0.313651,0.31988 -0.279778,2.21661 0.04672,2.61787 0.455593,0.55984 1.036778,0.35344 1.38279,-0.49111 0.436122,-1.06449 0.471775,-5.81364 0.04362,-5.81364 -0.155878,0 -0.492186,-0.19835 -0.747354,-0.4408 -0.255168,-0.24244 -0.655015,-0.44079 -0.888562,-0.44079 -0.886145,0 -3.26734,-3.18992 -3.26734,-4.37703 0,-0.22989 -0.170482,-0.55404 -0.378848,-0.72035 -0.343823,-0.27443 -0.338832,-0.27969 0.05399,-0.057 0.238089,0.13497 0.462676,0.49658 0.499097,0.80358 0.03643,0.307 0.246019,0.72414 0.465787,0.92697 0.378896,0.3497 0.406692,0.33575 0.53702,-0.2694 0.158264,-0.73489 -0.15698,-1.72608 -0.756681,-2.37916 -0.367437,-0.40013 -0.409339,-0.74763 -0.363802,-3.016955 l 0.05146,-2.564746 -0.810411,-0.849304 c -0.759328,-0.795767 -0.810419,-0.935228 -0.810419,-2.212178 0,-0.974096 -0.123067,-1.568726 -0.431416,-2.084495 -0.23728,-0.396892 -0.42342,-0.919976 -0.413643,-1.162421 0.01413,-0.350935 0.05203,-0.325637 0.185805,0.124117 0.09243,0.310702 0.424449,1.033272 0.737822,1.605711 0.313365,0.572439 0.569766,1.266521 0.569766,1.542411 0,0.571606 0.727359,1.466333 1.192043,1.466333 0.170924,0 0.471538,0.250226 0.668027,0.556054 0.293672,0.457093 0.339323,0.967215 0.256507,2.86626 -0.08597,1.97134 -0.04256,2.407816 0.296065,2.975653 0.218241,0.36598 0.396801,0.86847 0.396801,1.11664 0,0.40108 0.03602,0.41449 0.324171,0.12062 0.17829,-0.18183 0.324162,-0.40567 0.324162,-0.49743 0,-0.0918 0.211453,-0.39639 0.469896,-0.67694 l 0.469896,-0.5101 -0.469896,-0.510105 c -0.258443,-0.280555 -0.469896,-0.688259 -0.469896,-0.906006 0,-0.338782 0.06134,-0.320831 0.425038,0.1244 0.233767,0.28617 0.428263,0.441783 0.432217,0.345796 0.0041,-0.09598 -0.187308,-0.387421 -0.425029,-0.64765 -0.237721,-0.26023 -0.432226,-0.748961 -0.432226,-1.086077 0,-0.337107 0.194505,-0.96609 0.432226,-1.397735 0.237721,-0.431637 0.432225,-1.063952 0.432225,-1.405133 0,-0.34118 0.194496,-0.79984 0.432217,-1.019244 0.332396,-0.306786 0.432225,-0.678821 0.432225,-1.610809 0,-1.121129 0.06216,-1.271244 0.830406,-2.004519 0.456721,-0.435951 0.940013,-0.990997 1.073985,-1.233442 0.133971,-0.242437 0.246534,-0.309194 0.250152,-0.148341 0.0033,0.160844 -0.308186,0.60715 -0.692891,0.991788 -0.687801,0.687693 -0.698215,0.728194 -0.625079,2.430633 0.07286,1.6966 0.06093,1.743831 -0.59721,2.356862 -0.369373,0.344063 -0.665005,0.755133 -0.656959,0.913487 0.0082,0.158362 0.120151,0.06481 0.249131,-0.207976 0.364194,-0.770118 0.60069,-0.588332 0.60069,0.461741 0,0.677731 -0.126334,1.074231 -0.432225,1.356552 -0.237721,0.219404 -0.432225,0.66571 -0.432225,0.991789 0,0.326087 0.194504,0.772392 0.432225,0.991797 0.53644,0.495094 0.576602,1.786172 0.07318,2.353442 -0.197453,0.22252 -0.464889,0.61942 -0.594303,0.88202 -0.129413,0.2626 -0.527047,0.64118 -0.883628,0.84128 -0.927761,0.52063 -0.983532,1.46922 -0.140506,2.38958 0.374829,0.40922 0.852983,0.69663 1.158963,0.69663 0.286476,0 0.728511,0.19728 0.98229,0.4384 0.526623,0.50036 0.970471,0.41216 1.787629,-0.35525 0.300697,-0.28238 0.932825,-0.6491 1.40473,-0.81495 1.023252,-0.35959 1.258253,-1.1342 0.54407,-1.79335 -0.243349,-0.22459 -0.442452,-0.49925 -0.442452,-0.61034 0,-0.24237 0.419638,0.17642 0.927311,0.92544 0.703214,1.0375 0.276535,2.07657 -0.921904,2.24505 -0.294178,0.0414 -0.643188,0.29766 -0.775574,0.56957 -0.132387,0.27191 -0.402265,0.67643 -0.599718,0.89895 -0.486085,0.54778 -0.452416,1.42753 0.07319,1.91265 0.358321,0.3307 0.432217,0.67882 0.432217,2.0359 0,1.35066 -0.118329,1.9133 -0.676497,3.21672 -0.372076,0.86885 -0.761077,1.61279 -0.864443,1.6532 -0.292046,0.11415 -0.228679,3.4334 0.07139,3.73942 0.143709,0.14656 0.833813,0.26448 1.547818,0.26448 0.990163,0 1.505539,0.12972 2.225947,0.56028 0.515603,0.30816 0.937455,0.69903 0.937455,0.8686 0,0.16956 0.08208,0.36002 0.182391,0.42325 0.100311,0.0632 0.05677,-0.60038 -0.09669,-1.47468 -0.374772,-2.13477 -0.365624,-4.41428 0.0236,-5.88741 0.176167,-0.6667 0.38468,-2.20398 0.46337,-3.41617 0.140938,-2.17117 0.474225,-3.19578 1.039506,-3.19578 0.60564,0 1.042406,-0.84321 0.901672,-1.74075 -0.114793,-0.73209 -0.04762,-0.97815 0.42293,-1.54842 0.33296,-0.40355 0.765372,-0.678 1.06822,-0.678 0.625019,0 1.181655,-0.7619 1.181655,-1.6174 0,-0.37121 -0.300739,-1.06456 -0.719611,-1.65905 -1.037284,-1.472188 -1.323259,-2.296393 -1.006325,-2.900336 0.320818,-0.611349 -0.06984,-2.212703 -0.676345,-2.77248 -0.769873,-0.710551 -0.347654,-3.481931 0.637713,-4.185801 0.549199,-0.392311 0.586699,-0.843123 0.142403,-1.711919 -0.493363,-0.964749 -0.385372,-0.997486 0.232322,-0.07047 0.420124,0.630532 0.521212,0.990814 0.415596,1.481219 -0.07676,0.356416 -0.229331,0.704611 -0.339048,0.773767 -0.387068,0.243961 -0.218718,1.998921 0.250056,2.606688 0.717854,0.930713 0.38289,1.08336 -0.503568,0.229483 -0.445729,-0.429345 -0.810415,-0.693857 -0.810415,-0.587799 0,0.106058 0.290143,0.411603 0.644764,0.67898 1.046495,0.789061 1.368254,1.659023 1.247926,3.374115 -0.09424,1.343249 -0.05548,1.539129 0.388663,1.964668 0.271336,0.259964 0.610207,0.760395 0.753044,1.112085 0.142838,0.35168 0.333815,0.63943 0.424394,0.63943 0.20563,0 0.424359,-0.80421 0.428259,-1.574585 0.0043,-0.855909 1.089882,-1.951798 1.933383,-1.951798 0.42838,0 0.726485,-0.132931 0.812852,-0.362464 0.130251,-0.346154 -0.02748,-0.532563 -0.906867,-1.071765 -0.314887,-0.193082 -0.325494,-0.304063 -0.0813,-0.850645 0.244508,-0.547274 0.23302,-0.664244 -0.08881,-0.90424 -0.406857,-0.303405 -0.490408,-0.896319 -0.156006,-1.107093 0.123581,-0.07789 0.158081,0.01299 0.08184,0.215597 -0.07248,0.19264 0.03856,0.542235 0.246775,0.776866 0.266623,0.300456 0.339874,0.623885 0.247725,1.093782 -0.114965,0.586225 -0.07119,0.667176 0.360812,0.667176 0.679311,0 1.01032,0.403139 1.01032,1.230468 0,0.633815 -0.114701,0.756899 -1.188611,1.275459 l -1.188613,0.573947 v 1.199295 c 0,1.21306 -0.219145,1.64222 -1.077914,2.11095 -0.248502,0.13562 -0.355676,0.37285 -0.287888,0.63722 0.229696,0.89577 -0.866691,1.87019 -2.308088,2.05131 -0.491104,0.0617 -0.540277,0.16315 -0.540277,1.11453 0,0.92734 -0.09238,1.13332 -0.810416,1.80705 l -0.810419,0.76041 -0.05399,3.81311 c -0.117635,8.30208 -0.07229,8.98754 0.706319,10.67616 0.383462,0.83165 0.965304,1.80963 1.292985,2.17328 0.32768,0.36366 0.80622,1.25627 1.063418,1.98359 0.257201,0.72731 0.406229,1.02485 0.331173,0.66119 -0.385205,-1.86644 -0.363199,-2.59029 0.10455,-3.43905 0.362168,-0.65718 0.416012,-0.94404 0.240109,-1.27924 -0.124714,-0.23765 -0.226751,-0.74267 -0.226751,-1.12227 0,-0.3796 -0.105519,-0.89124 -0.234487,-1.137 -0.324435,-0.61824 -0.105678,-1.2473 0.791721,-2.2767 0.744985,-0.85456 0.807636,-0.87996 2.242949,-0.90934 1.742354,-0.0356 1.954264,-0.13662 1.954264,-0.93079 0,-0.44523 -0.361394,-0.96475 -1.404723,-2.01931 -1.614863,-1.63226 -1.814498,-2.39574 -0.864445,-3.30598 0.656032,-0.62853 0.703299,-1.54441 0.108056,-2.09378 -0.299624,-0.27654 -0.431226,-0.6758 -0.428978,-1.30145 0.0029,-0.78637 0.155815,-1.07021 1.188611,-2.20521 1.219662,-1.34037 1.478302,-2.12594 0.915229,-2.77988 -0.148577,-0.17254 -0.05133,-0.12742 0.216111,0.10028 0.62677,0.53366 0.654223,1.71718 0.05403,2.32928 -0.261597,0.26679 -0.432223,0.73467 -0.432223,1.18521 0,0.88444 -0.428998,1.36656 -0.852818,0.95843 -0.22804,-0.21959 -0.23893,-0.18717 -0.0581,0.17302 0.122402,0.24379 0.426055,0.63108 0.674788,0.86064 0.737987,0.68113 0.561786,3.1422 -0.26423,3.69061 -0.227583,0.15111 0.632227,1.08051 1.658746,1.79302 0.485996,0.33733 0.570502,0.55577 0.570502,1.47468 0,1.1976 0.301206,1.68401 0.363976,0.58777 0.07536,-1.31607 0.342651,-2.43917 0.656747,-2.7595 0.202782,-0.20681 0.269419,-0.54361 0.187301,-0.94667 -0.07011,-0.34411 -0.185862,-0.91437 -0.257233,-1.26725 -0.103642,-0.51245 -0.03467,-0.69349 0.342677,-0.89945 0.259841,-0.14181 0.520063,-0.20929 0.578272,-0.14992 0.0582,0.0594 -0.105624,0.17638 -0.364071,0.26003 -0.40085,0.12975 -0.447007,0.25417 -0.314092,0.84662 0.191432,0.8533 0.188635,2.79931 -0.0072,4.99228 -0.138516,1.55132 -0.202249,1.7106 -1.03616,2.58969 -0.8379,0.88328 -0.957788,0.93669 -2.102565,0.93669 -1.900694,0 -2.087974,0.31996 -2.257569,3.85698 -0.07556,1.57584 -0.131711,3.60902 -0.124781,4.51816 0.01267,1.66109 -0.113383,2.13605 -1.203852,4.53628 -0.279885,0.61605 -0.572027,1.45907 -0.6492,1.87338 -0.07718,0.41431 -0.223885,0.86264 -0.326019,0.99627 -0.102138,0.13364 -0.185704,6.25796 -0.185704,13.6096 v 13.36661 h 1.512779 1.512778 v -13.66466 -13.6647 h 3.349724 c 3.304973,0 3.349723,0.007 3.349723,0.48384 0,0.82103 -1.03779,1.72014 -1.985433,1.72014 h -0.824012 v 13.84186 13.84187 l -0.712651,0.70443 -0.712649,0.70443 h -4.220236 c -4.131942,0 -4.230073,-0.0107 -4.690134,-0.5101 z m 87.957187,-1.50586 c -0.47632,-0.59583 -0.48054,-0.62882 -0.0805,-0.62882 0.55302,0 0.99367,0.54789 0.76234,0.94789 -0.14131,0.24432 -0.28535,0.17692 -0.68185,-0.31907 z m -0.79398,0.25278 c -0.0734,-0.12122 -0.0306,-0.22041 0.0953,-0.22041 0.12587,0 0.22886,0.0992 0.22886,0.22041 0,0.12121 -0.0429,0.22039 -0.0953,0.22039 -0.0524,0 -0.15541,-0.0992 -0.22887,-0.22039 z m -1.63247,-1.2453 c -0.40962,-0.44247 -0.60218,-0.72091 -0.42793,-0.61875 0.17426,0.10215 0.66051,0.24235 1.08056,0.31155 0.57908,0.0954 0.78043,0.24502 0.83278,0.61877 0.10803,0.77102 -0.62568,0.61712 -1.48541,-0.31157 z m 3.56858,0.56943 c -0.0783,-0.12928 -0.0906,-0.28798 -0.0271,-0.35267 0.1548,-0.15787 0.5763,0.12031 0.5763,0.38034 0,0.28167 -0.3731,0.26287 -0.54917,-0.0276 z m -1.44986,-0.79846 c -0.22914,-0.0611 -0.3782,-0.31158 -0.3782,-0.63562 0,-0.66399 0.14237,-0.67239 0.66053,-0.039 0.62892,0.76884 0.57298,0.90251 -0.28233,0.67456 z m -1.50146,-0.30043 c -0.43949,-0.0746 -0.93469,-0.25046 -1.10044,-0.39075 -0.16573,-0.14028 -0.3445,-0.21105 -0.39723,-0.15726 -0.0528,0.0538 -0.0959,-0.0958 -0.0959,-0.33251 0,-0.34875 0.15054,-0.4303 0.79419,-0.4303 0.8817,0 1.79826,0.6122 1.67667,1.11992 -0.0592,0.24735 -0.27206,0.29365 -0.8773,0.1909 z m 0.17589,-1.50447 c -0.33889,-0.36076 -0.89651,-0.77434 -1.23913,-0.91907 -0.43961,-0.18571 -0.62294,-0.41744 -0.62294,-0.78741 v -0.52426 h -3.09594 c -2.95673,0 -3.11708,-0.0229 -3.56584,-0.5101 -0.42193,-0.45803 -0.46989,-0.7505 -0.46989,-2.86517 0,-2.14221 0.036,-2.35508 0.39873,-2.35508 0.21929,0 0.57475,-0.19837 0.78988,-0.4408 0.21514,-0.24244 0.59774,-0.4408 0.85023,-0.4408 0.25249,0 0.59926,-0.19836 0.7706,-0.44079 0.17134,-0.24244 0.48456,-0.4408 0.69605,-0.4408 0.33657,0 0.38451,0.21985 0.38451,1.76319 v 1.76318 h 2.80945 2.80944 v -1.76318 -1.76319 h 1.945 1.945 v 3.26756 c 0,3.13057 -0.021,3.28764 -0.50017,3.74677 -0.36663,0.35126 -0.77055,0.47921 -1.51278,0.47921 h -1.0126 v 1.21219 c 0,0.89889 -0.0791,1.2122 -0.30616,1.2122 -0.16838,0 -0.34016,0.104 -0.38171,0.23113 -0.0416,0.12712 -0.35282,-0.0641 -0.69173,-0.42478 z m -1.86207,-0.46755 c 0,-0.55574 0.24667,-0.55775 0.89453,-0.007 l 0.51019,0.43346 -0.70236,0.007 c -0.56069,0.006 -0.70236,-0.0815 -0.70236,-0.43346 z M 50.60816,150.84315 v -9.03634 h 5.835003 c 4.581259,0 5.835003,0.0603 5.835003,0.28068 0,0.15436 -0.755841,1.04697 -1.679643,1.98358 l -1.679645,1.70291 h -2.210357 -2.210359 v 1.54279 1.5428 h 1.727059 c 1.493009,0 1.763638,-0.0597 1.996984,-0.4408 0.163989,-0.2678 0.503978,-0.4408 0.866278,-0.4408 h 0.596348 v 2.86518 2.86518 h -0.596348 c -0.3623,0 -0.702289,-0.173 -0.866278,-0.4408 -0.233346,-0.38106 -0.503975,-0.44079 -1.996984,-0.44079 h -1.727059 v 1.54278 1.54279 h 4.168265 4.168263 l 1.018405,1.05446 c 0.889237,0.92073 1.018404,1.17231 1.018404,1.98359 v 0.92912 H 57.73983 50.60816 Z m 15.560007,8.69151 c 0,-0.18966 0.29175,-0.59519 0.648333,-0.90118 l 0.648334,-0.55637 v -7.19011 -7.19011 l 0.909442,-0.94504 0.909441,-0.94504 h 4.444083 4.444082 l 1.778145,1.8229 1.778147,1.82289 v 3.64118 3.64118 l -0.926653,0.92748 c -0.75275,0.75342 -1.077206,0.92748 -1.728889,0.92748 -0.508169,0 -0.802237,0.10352 -0.802237,0.28239 0,0.15533 0.562007,0.84958 1.248906,1.5428 0.999903,1.0091 1.387689,1.26039 1.945001,1.26039 0.691238,0 0.696093,0.007 0.696093,1.10199 v 1.10199 h -3.025556 -3.025557 v -1.76318 -1.76319 h -2.377223 -2.377223 v 1.76319 1.76318 h -2.593335 c -2.208672,0 -2.593334,-0.0512 -2.593334,-0.34482 z m 11.274794,-7.51348 c 0.33929,-0.31314 0.395211,-0.72389 0.395211,-2.90293 0,-3.28899 -0.0424,-3.34427 -2.565378,-3.34427 h -1.850055 l -1.033952,1.03862 -1.033951,1.0386 v 2.26737 2.26737 h 2.846457 c 2.345383,0 2.916027,-0.0642 3.241668,-0.36476 z m 7.792248,6.03541 -1.778146,-1.82288 v -7.70475 -7.70474 l 1.945001,1.97439 1.945001,1.97439 v 5.56966 5.56965 h 2.377223 2.377225 v -5.79005 -5.79005 l 1.945001,-1.9744 1.945001,-1.97439 v 7.93461 7.93461 l -1.787432,1.81342 -1.787433,1.81342 h -2.701648 -2.701648 z m 13.394638,0.87786 -0.909439,-0.94503 v -8.09131 -8.0913 h 5.402782 5.40278 v 0.94499 c 0,0.83663 -0.11854,1.06405 -1.03396,1.98358 l -1.03395,1.0386 h -2.42381 -2.42384 v 1.54279 1.5428 h 2.59334 2.59332 v 0.94497 c 0,0.83664 -0.11853,1.06405 -1.03394,1.98358 l -1.03395,1.03862 h -1.55938 -1.55939 v 1.54278 1.54279 h 5.18666 5.18667 v 1.98358 1.98359 h -6.22222 -6.222233 z m 33.713353,0 -0.90945,-0.94503 v -6.98931 -6.98931 h -0.86444 -0.86444 v -1.10199 -1.102 h 2.80944 2.80944 v 6.67743 6.67742 l 0.86446,0.86085 c 0.84093,0.83745 0.86444,0.90159 0.86444,2.35892 v 1.49805 h -1.90001 -1.9 z m 6.00611,-0.59776 v -1.54278 h 0.86445 0.86445 v -4.29778 -4.29776 h 1.0678 c 0.58728,0 1.1279,0.0992 1.20136,0.2204 0.0734,0.12121 0.33592,0.22039 0.58324,0.22039 0.91993,0 1.02344,0.50997 1.03072,5.07838 l 0.007,4.30698 -0.92665,0.92748 -0.92665,0.92748 h -1.8828 -1.88279 z m 6.91557,0.4408 v -1.10199 h 0.86444 0.86444 v -6.0015 -6.00149 l 1.88647,-1.93285 1.88647,-1.93285 h 3.34995 3.34995 l 1.89525,1.9239 1.89525,1.92389 v 6.01045 6.01045 h 0.86445 0.86444 v 1.10199 1.10199 h -2.80944 -2.80945 v -3.52637 -3.52637 h -2.55094 -2.55094 l -0.69072,0.72678 -0.69074,0.72679 v 2.79958 2.79959 h -2.80944 -2.80944 z m 12.10222,-11.90151 v -1.98359 h -2.52901 -2.52902 l -0.71265,0.70443 c -0.64493,0.63749 -0.71266,0.826 -0.71266,1.98359 v 1.27916 h 3.24167 3.24167 z m 6.91556,3.96717 v -9.03634 h 1.945 1.945 v 3.52638 3.52638 h 1.51278 1.51278 v -3.52638 -3.52638 h 1.945 1.945 v 3.46667 3.46667 l -1.77815,1.8229 -1.77815,1.82289 h 1.77815 1.77815 v 3.74677 3.74677 h -1.945 -1.945 v -3.52637 -3.52637 h -1.51278 -1.51278 v 2.42437 2.42439 h 0.86444 0.86445 v 1.10199 1.10199 h -2.80945 -2.80944 z m 12.96667,8.30902 c 0,-0.40002 0.0911,-0.82154 0.20247,-0.93669 0.11135,-0.11516 0.23292,-0.64798 0.27014,-1.18405 0.0373,-0.53606 0.16771,-1.00812 0.28999,-1.049 0.36881,-0.12332 0.96629,1.15275 0.96629,2.06373 0,0.46951 0.15139,1.07408 0.33642,1.34349 0.33556,0.48857 0.33333,0.48983 -0.86444,0.48983 h -1.20087 z m 2.3232,0.23877 c -0.21435,-0.27357 -0.3782,-0.85438 -0.3782,-1.34057 0,-0.79106 -0.53715,-2.14888 -0.91847,-2.32172 -0.0891,-0.0404 -0.16209,-0.31315 -0.16209,-0.6061 0,-0.51251 0.0571,-0.53263 1.51278,-0.53263 h 1.51278 v 0.66119 0.6612 h 6.05112 6.05111 v 0.75839 c 0,0.41711 -0.0973,0.81968 -0.21611,0.8946 -0.11886,0.0749 -0.21611,0.36616 -0.21611,0.64722 0,0.28104 -0.14588,0.63446 -0.32417,0.78537 -0.17829,0.15091 -0.32416,0.37478 -0.32416,0.4975 0,0.12273 0.19449,-0.0291 0.43221,-0.33724 0.23773,-0.30821 0.43223,-0.65657 0.43223,-0.77413 0,-0.11756 0.14587,-0.33722 0.32417,-0.48813 0.18616,-0.15756 0.32416,-0.63819 0.32416,-1.12897 v -0.85461 h 1.25002 c 1.22255,0 1.27479,0.0256 2.37723,1.16403 0.95215,0.98325 1.1272,1.29129 1.1272,1.98358 v 0.81956 l -9.23875,-0.003 -9.23876,-0.003 -0.37819,-0.4827 z M 32.884998,158.50199 c -0.485431,-0.74731 -0.689557,-1.81721 -0.794842,-4.16624 -0.07825,-1.74544 -0.170499,-2.1969 -0.513685,-2.51364 -0.341356,-0.31505 -0.418323,-0.68393 -0.418323,-2.00492 0,-1.7479 0.224979,-2.02042 0.972505,-1.17803 0.215136,0.24245 0.570582,0.4408 0.789884,0.4408 0.375752,0 0.398729,0.28579 0.398729,4.95897 0,2.72742 -0.02524,4.95896 -0.05611,4.95896 -0.03087,0 -0.201023,-0.22315 -0.378194,-0.4959 z m 144.402082,-2.52766 c -0.0322,-1.9214 0.01,-2.23353 0.28642,-2.12531 0.36664,0.14349 0.46081,1.83382 0.1217,2.18452 -0.11136,0.11515 -0.24025,0.65568 -0.28641,1.20116 -0.0461,0.54549 -0.10093,-0.0217 -0.12171,-1.26037 z M 29.429263,149.53376 c 0,-7.91182 0.02875,-8.12928 0.939008,-7.10349 0.307728,0.34678 0.357659,1.01889 0.357659,4.8146 0,4.13165 0.02744,4.43686 0.432218,4.81047 0.237729,0.21941 0.432225,0.55986 0.432225,0.75657 0,0.19671 -0.194496,0.5275 -0.432225,0.73508 -0.298549,0.2607 -0.432218,0.65016 -0.432218,1.25931 0,0.64318 -0.11699,0.95638 -0.432225,1.15716 -0.237721,0.1514 -0.432217,0.39434 -0.432217,0.53986 0,0.14551 -0.09726,0.32587 -0.216117,0.40079 -0.142457,0.0898 -0.216108,-2.4221 -0.216108,-7.37035 z m 148.630487,4.15957 -0.81042,-0.43633 v -6.38628 -6.38629 h 3.24167 3.24167 l -0.009,0.93669 c -0.007,0.71104 -0.16285,1.12052 -0.64833,1.69976 -0.66493,0.79335 -0.89428,1.40158 -0.29996,0.79546 0.42262,-0.431 0.87356,-0.4454 1.02879,-0.0328 0.0649,0.17243 0.34272,0.36245 0.61743,0.42228 0.2747,0.0598 -0.13267,0.10569 -0.90526,0.10195 -2.60154,-0.0127 -2.37722,-0.16238 -2.37722,1.58665 v 1.54279 h 2.54555 2.54555 l 1.34445,1.38342 c 0.98728,1.01589 1.34445,1.54286 1.34445,1.98358 v 0.60017 h -3.89 -3.89 v 1.32239 1.32239 l -1.13459,-0.01 c -0.6975,-0.006 -1.44678,-0.17782 -1.945,-0.44606 z m -63.91489,-0.6462 c 0,-0.58773 0.072,-0.66119 0.64833,-0.66119 0.74505,0 0.85206,0.40485 0.25312,0.95763 -0.59068,0.54518 -0.90145,0.44298 -0.90145,-0.29644 z m 0,-8.75249 v -5.00572 l 0.90944,-0.94503 0.90944,-0.94504 h 2.76445 c 3.15883,0 3.26112,0.0771 1.90001,1.43259 -0.70854,0.7056 -0.86445,1.01178 -0.86445,1.69772 0,0.82941 -0.007,0.83685 -0.86444,0.83685 h -0.86445 v 3.52638 c 0,3.37944 -0.018,3.52638 -0.43222,3.52638 -0.28815,0 -0.43223,0.14693 -0.43223,0.4408 0,0.39881 -0.14407,0.44079 -1.51277,0.44079 h -1.51278 z m 10.37334,4.56493 c 0,-0.29387 -0.14408,-0.4408 -0.43223,-0.4408 -0.41421,0 -0.43222,-0.14694 -0.43222,-3.52638 v -3.52638 h -1.72888 -1.7289 v -0.72665 c 0,-0.55737 0.2014,-0.92722 0.86444,-1.58752 0.47545,-0.47347 0.86446,-1.03909 0.86446,-1.25693 0,-0.36083 0.24983,-0.39606 2.80944,-0.39606 h 2.80944 v 5.95075 5.95076 h -1.51277 c -1.36871,0 -1.51278,-0.042 -1.51278,-0.44079 z m 19.15574,-0.33061 c -0.0685,-0.18182 -0.25393,-0.33059 -0.41225,-0.33059 -0.40291,0 -1.45087,-0.51665 -1.45291,-0.7163 -8.1e-4,-0.0909 0.14886,-0.1653 0.33285,-0.1653 0.4676,0 1.3793,-1.11378 1.38753,-1.69507 0.004,-0.26559 0.10407,-0.54419 0.22293,-0.61911 0.13801,-0.087 0.21612,0.58544 0.21612,1.86038 0,1.98354 -0.0559,2.29966 -0.29427,1.66599 z M 32.500442,148.36367 c -0.318396,-0.39263 -0.08495,-1.35661 0.403923,-1.66798 0.388387,-0.24736 0.414901,-0.19371 0.414901,0.83962 0,1.12435 -0.317947,1.44601 -0.818824,0.82836 z m 107.577768,-3.80188 v -3.19578 h 2.80944 2.80944 v 1.102 1.10199 h -0.86444 c -0.76613,0 -0.86444,0.0596 -0.86444,0.52401 0,0.2882 -0.14588,0.64748 -0.32417,0.79838 -0.17829,0.15091 -0.32416,0.49289 -0.32416,0.75997 0,0.51137 -0.81596,1.44402 -1.26336,1.44402 -0.14464,0 -0.31897,0.14876 -0.38739,0.3306 -0.0768,0.20397 -0.40523,0.33059 -0.85766,0.33059 h -0.73326 z m 44.84307,-0.33059 c -0.0734,-0.12122 -0.2737,-0.2204 -0.44498,-0.2204 -0.17128,0 -0.498,-0.19029 -0.72605,-0.42287 -0.40878,-0.41688 -0.40878,-0.42827 0,-0.80555 0.28758,-0.26542 0.41464,-0.67613 0.41464,-1.34032 v -0.95763 h 3.45778 c 4.18069,0 4.20274,0.0277 1.88589,2.37479 l -1.57189,1.59237 h -1.44091 c -0.79251,0 -1.50102,-0.0992 -1.57448,-0.22039 z"
       id="path4496"
       inkscape:connector-curvature="0" />
    <path
       style="fill:url(#linearGradient6010);fill-opacity:1;stroke-width:0.21824427"
       d="m 102.06208,204.581 c -0.25571,-0.90941 -0.56208,-7.15146 -0.79067,-16.10977 -0.11575,-4.53617 -0.21138,-5.83087 -0.43715,-5.91924 -0.15894,-0.0622 -0.28898,-0.34731 -0.28898,-0.63359 0,-0.70914 0.52831,-0.48034 0.87781,0.38017 0.14798,0.36434 0.49726,0.81493 0.77618,1.00131 0.33407,0.22323 0.50713,0.55141 0.50713,0.96171 0,0.34256 0.0973,0.68414 0.21611,0.75905 0.31777,0.2003 0.26313,1.33197 -0.10806,2.23799 -0.1903,0.46449 -0.30766,1.34894 -0.28419,2.14179 l 0.0399,1.35058 0.0671,-1.21219 c 0.0369,-0.6667 0.20858,-1.70809 0.38151,-2.31418 0.17292,-0.6061 0.41486,-1.44912 0.53763,-1.87339 0.24663,-0.85226 0.16096,4.86999 -0.20293,13.5545 -0.19472,4.64742 -0.44093,6.50175 -0.86326,6.50175 -0.10769,0 -0.30038,-0.37191 -0.4282,-0.82649 z M 84.120831,178.29849 v -12.1219 h 5.40278 5.402783 v 1.98359 1.98357 h -3.457785 -3.457778 v 1.54279 1.54279 h 1.51278 1.512773 v -0.8816 -0.88159 h 1.080567 1.08055 v 3.74677 3.74678 h -1.08055 -1.080567 v -0.88159 -0.8816 h -1.512773 -1.51278 v 5.01958 5.01958 l -1.571889,1.59237 c -0.864538,0.87581 -1.739786,1.59237 -1.945001,1.59237 -0.348886,0 -0.37311,-0.78706 -0.37311,-12.12191 z m 96.601709,9.80474 c 0,-0.42591 -0.0829,-0.94661 -0.18431,-1.15709 -0.77072,-1.60033 -0.92999,-2.02209 -0.82747,-2.19127 0.0644,-0.10621 -0.21654,-0.15339 -0.62421,-0.10485 -0.711,0.0847 -0.74211,0.0581 -0.76278,-0.65215 -0.0118,-0.40723 -0.10448,-0.98836 -0.20585,-1.29141 l -0.18433,-0.551 0.0137,0.551 c 0.007,0.30305 0.003,0.87333 -0.0102,1.26729 l -0.0239,0.7163 h -5.835 -5.83499 v -3.74678 -3.74677 h 1.945 1.945 v 1.05876 c 0,0.90828 0.10127,1.15887 0.71265,1.76318 0.68969,0.68175 1.44846,0.9353 1.44846,0.48403 0,-0.13958 1.58482,-0.22039 4.32221,-0.22039 h 4.32223 v 4.29777 c 0,2.36377 -0.0486,4.29776 -0.10805,4.29776 -0.0595,0 -0.10805,-0.34846 -0.10805,-0.77438 z M 46.949703,182.70646 c 0,-3.37944 0.018,-3.52638 0.432222,-3.52638 0.237723,0 0.432223,0.1211 0.432223,0.26911 0,0.14801 0.556143,0.84227 1.235875,1.54279 l 1.235873,1.27368 h 5.031352 5.03135 v -4.18756 -4.18758 h -4.877939 c -3.939398,0 -4.93734,-0.0606 -5.186669,-0.31485 -0.455188,-0.46422 -0.455188,-10.80758 0,-11.2718 0.253159,-0.25818 1.42016,-0.31485 6.483336,-0.31485 h 6.174607 v 2.64478 2.64478 h -1.080557 c -1.056543,0 -1.080555,-0.0147 -1.080555,-0.6612 v -0.66119 h -3.45778 -3.457779 v 1.98358 1.98359 h 4.877939 c 3.939398,0 4.937339,0.0606 5.186669,0.31485 0.254328,0.25938 0.30873,1.52257 0.30873,7.16874 v 6.8539 l -0.966812,0.98599 -0.966815,0.98599 h -7.677634 -7.677636 z m 56.113517,2.27402 c -0.0774,-0.079 -0.14071,-0.42222 -0.14071,-0.76289 0,-0.4105 -0.17483,-0.7362 -0.51843,-0.96579 -0.28513,-0.19054 -0.63885,-0.64292 -0.78602,-1.0053 -0.14719,-0.36239 -0.44877,-0.75775 -0.6702,-0.8786 -0.37619,-0.20534 -0.40258,-0.58033 -0.40258,-5.72194 v -5.50221 h -0.648334 c -0.607387,0 -0.648333,0.0532 -0.648333,0.84318 0,1.00625 -0.697848,1.8016 -1.580734,1.8016 h -0.580376 v -3.30596 -3.30598 h 1.728893 1.728884 v -1.10199 c 0,-0.95507 -0.0577,-1.102 -0.43222,-1.102 -0.336175,0 -0.432222,-0.14693 -0.432222,-0.66119 v -0.6612 h 2.809442 2.80945 v 0.6612 c 0,0.51426 -0.096,0.66119 -0.43222,0.66119 -0.37459,0 -0.43222,0.14693 -0.43222,1.102 v 1.10199 h 1.72889 1.72888 v 3.30598 3.30596 h -0.61066 c -0.8588,0 -1.55045,-0.81746 -1.55045,-1.83249 0,-0.75561 -0.0452,-0.81229 -0.64833,-0.81229 h -0.64833 v 6.14757 c 0,5.2612 -0.0467,6.16587 -0.32417,6.27445 -0.20714,0.0811 -0.32666,0.42775 -0.33104,0.96027 -0.007,0.83011 -0.44914,1.72748 -0.71686,1.45444 z m -35.096701,-1.06091 c -0.204569,-0.23695 -0.27014,-2.09551 -0.27014,-7.65683 v -7.34391 l 1.356511,-1.37112 1.356508,-1.37112 h 4.430708 4.43071 l 1.34445,1.38342 1.344451,1.38342 v 7.33805 c 0,6.06578 -0.05353,7.39265 -0.308728,7.65292 -0.455787,0.46482 -13.282381,0.45093 -13.68447,-0.0148 z m 10.103198,-8.92705 v -4.84877 H 75.647578 73.22544 l -0.81953,0.81613 -0.819529,0.81612 v 4.03264 4.03264 h 3.241668 3.241668 z m 34.627053,7.43384 -1.77815,-1.82289 v -6.55225 -6.55224 h -0.86444 c -0.81642,0 -0.86445,-0.0367 -0.86445,-0.66119 v -0.6612 h 2.80945 2.80944 v 7.05274 7.05275 h 1.51278 1.51278 v -6.15279 c 0,-4.70672 0.0635,-6.183 0.27014,-6.28135 0.21611,-0.10285 0.21611,-0.15428 0,-0.25713 -0.14857,-0.0707 -0.27014,-0.41784 -0.27014,-0.77139 v -0.64283 h 1.945 1.94501 v 0.64283 c 0,0.35355 -0.12157,0.70068 -0.27014,0.77139 -0.21612,0.10285 -0.21612,0.15428 0,0.25713 0.20665,0.0983 0.27014,1.57463 0.27014,6.28135 v 6.15279 h 1.52162 1.52162 l -0.0735,-6.77726 c -0.0404,-3.72747 -0.153,-7.00038 -0.25016,-7.27313 -0.13681,-0.38406 -0.0979,-0.4959 0.17273,-0.4959 0.19216,0 0.34937,0.0992 0.34937,0.2204 0,0.12122 0.20024,0.2204 0.44498,0.2204 0.24474,0 0.38487,-0.0992 0.31141,-0.2204 -0.0734,-0.12122 -0.0387,-0.2204 0.0773,-0.2204 0.11597,0 0.25901,0.12398 0.31786,0.2755 0.059,0.15201 0.23366,-0.0456 0.38955,-0.4408 0.34547,-0.87578 0.5691,-0.91314 0.65969,-0.1102 0.0668,0.59209 0.10459,0.60759 1.63519,0.67085 1.55024,0.0641 1.56681,0.0711 1.56681,0.67157 0,0.41754 -0.26964,0.87532 -0.86445,1.46766 l -0.86445,0.86086 v 5.74558 5.7456 l -1.78743,1.81342 -1.78743,1.81342 h -1.88645 -1.88647 v -0.94856 c 0,-0.79472 -0.12266,-1.06981 -0.75638,-1.69622 l -0.75639,-0.74766 -0.75639,0.74766 c -0.63372,0.62641 -0.7564,0.9015 -0.7564,1.69622 v 0.94856 h -1.89574 -1.89574 z m 17.23964,0.72089 v -1.10198 h 0.86445 0.86444 v -6.12093 -6.12091 l 1.78743,-1.81342 1.78743,-1.81342 h 3.5661 3.56609 l 1.77814,1.82289 1.77815,1.82289 v 6.11145 6.11145 h 0.86444 0.86445 v 1.10198 1.102 h -3.67389 -3.6739 v -1.102 -1.10198 h 0.86446 0.86444 v -2.42439 -2.42438 h -3.24167 -3.24167 v 3.52638 3.52637 h -0.64833 -0.64834 v -2.16982 c 0,-1.88992 -0.0558,-2.22129 -0.43222,-2.56875 -0.35749,-0.32994 -0.43222,-0.67882 -0.43222,-2.01774 0,-1.39137 0.0532,-1.6201 0.3782,-1.62787 0.208,-0.005 0.81237,-0.40926 1.34306,-0.89843 0.85109,-0.78452 0.88932,-0.85645 0.32416,-0.61009 -0.35238,0.15361 -0.84147,0.45873 -1.08685,0.67802 -0.71449,0.63857 -0.95857,0.49513 -0.95857,-0.56333 0,-0.62834 -0.14993,-1.15646 -0.43222,-1.52245 -0.23772,-0.30821 -0.43223,-0.66286 -0.43223,-0.78811 0,-0.12525 -0.0882,-0.28331 -0.19595,-0.35124 -0.30667,-0.19329 -0.009,0.71385 0.32737,0.99886 0.2312,0.19569 0.30081,0.97994 0.30081,3.38924 0,2.85472 0.0386,3.17025 0.43222,3.53354 0.37348,0.3447 0.43222,0.67882 0.43222,2.45855 v 2.05962 h -1.945 -1.945 z m 12.10223,-11.46071 v -1.54279 h -3.24167 -3.24167 v 1.54279 1.54279 h 3.24167 3.24167 z m 6.91556,4.14453 v -8.41817 l 0.58071,-0.61816 0.5807,-0.61815 h 4.65572 4.65571 l 1.89525,1.92389 1.89525,1.92389 v 3.58606 3.58607 h -1.72889 -1.7289 v 0.66119 c 0,0.54277 0.0889,0.6612 0.49642,0.6612 0.2944,0 0.83994,0.35877 1.34053,0.8816 0.46426,0.48487 1.01887,0.88159 1.23248,0.88159 0.34497,0 0.38836,0.2216 0.38836,1.98358 v 1.98359 h -1.945 -1.945 v -1.76319 -1.76318 h -3.24167 -3.24167 l 0.0171,0.93669 c 0.009,0.51518 0.0661,0.81272 0.12607,0.6612 0.06,-0.15153 0.44127,-0.2755 0.84738,-0.2755 h 0.73837 v 1.10198 1.102 h -2.80943 -2.80945 v -8.41818 z m 9.66068,0.2202 0.71266,-0.70443 v -2.60155 -2.60154 h -3.24167 -3.24167 v 3.30598 3.30598 h 2.52901 2.52902 z m 7.62821,-2.16075 v -1.98358 h 0.86445 c 0.47544,0 0.86444,-0.0992 0.86444,-0.2204 0,-0.12122 -0.389,-0.2204 -0.86444,-0.2204 h -0.86445 v -2.86517 -2.86518 h 6.35727 c 4.88361,0 6.38255,0.0639 6.46628,0.2755 0.0599,0.15152 0.11667,0.0523 0.12606,-0.2204 0.0138,-0.4002 0.14218,-0.4959 0.6654,-0.4959 h 0.64833 v 2.42439 2.42437 h -0.64833 c -0.35659,0 -0.64834,-0.0992 -0.64834,-0.22039 0,-0.13993 -1.65685,-0.2204 -4.53833,-0.2204 h -4.53834 v 1.10199 1.10199 h 2.59334 2.59333 v 1.10199 c 0,0.91998 -0.0652,1.10199 -0.39455,1.10199 -0.48498,0 -1.33433,0.88588 -1.33433,1.3917 0,0.33382 -0.37255,0.37149 -3.6739,0.37149 h -3.67389 z M 27.715809,169.92336 c 0,-0.93909 0.06126,-1.10199 0.414206,-1.10199 0.227822,0 0.453813,0.12115 0.502217,0.26924 0.05628,0.17212 0.296612,0.0565 0.666344,-0.32058 l 0.578342,-0.58982 v -5.66258 -5.66258 l 0.756388,-0.94138 c 0.540779,-0.67304 0.756389,-1.15871 0.756389,-1.7038 0,-0.41933 0.14588,-0.88588 0.324171,-1.03679 0.277139,-0.23457 0.324914,-0.16654 0.329316,0.46892 0.0025,0.4088 0.108096,1.13999 0.233907,1.62487 0.125803,0.48488 0.283568,1.17913 0.350586,1.54279 0.06698,0.36366 0.350758,0.96809 0.630544,1.34319 0.50581,0.67812 0.508702,0.71663 0.508702,6.77725 v 6.09524 H 30.74136 27.715809 Z m 9.546559,-3.81608 -0.469896,-0.5101 V 151.56099 137.5248 h -1.512775 -1.512776 v 3.97769 c 0,3.87666 -0.01274,3.99002 -0.502356,4.46307 -0.27629,0.26695 -0.564987,0.65894 -0.641554,0.87107 -0.07653,0.21213 -0.336741,0.3857 -0.578203,0.3857 -0.41651,0 -0.439005,-0.13351 -0.439005,-2.60637 0,-2.43943 -0.03202,-2.63705 -0.500174,-3.08558 -0.275099,-0.26356 -0.664099,-0.4792 -0.864443,-0.4792 -0.322513,0 -0.364268,-0.32117 -0.364268,-2.80175 v -2.80173 l 0.90944,-0.94503 0.90944,-0.94504 h 3.170215 c 2.645814,0 3.217801,-0.0585 3.457923,-0.35355 0.158247,-0.19446 0.510532,-0.43995 0.782853,-0.54555 0.45845,-0.17776 0.495133,-0.32102 0.495133,-1.93364 0,-1.27926 -0.08606,-1.8145 -0.324167,-2.01603 -0.178293,-0.15091 -0.324165,-0.41469 -0.324165,-0.5862 0,-0.28611 -1.145993,-1.53018 -2.403829,-2.60958 -0.651789,-0.55932 -1.052314,-1.28701 -1.059796,-1.92549 -0.0033,-0.27439 -0.367804,-0.8956 -0.810182,-1.38048 -0.801892,-0.87891 -0.808941,-0.88145 -2.317347,-0.83618 -1.506495,0.0452 -1.516975,0.0415 -2.431495,-0.87238 -0.79481,-0.79423 -0.918465,-1.04369 -0.918465,-1.85286 0,-0.51428 0.105571,-1.43712 0.234617,-2.05075 0.224162,-1.06599 0.20491,-1.16145 -0.432225,-2.14242 -0.815892,-1.25622 -0.851855,-2.15255 -0.126563,-3.15513 0.297151,-0.41076 0.54028,-0.64823 0.54028,-0.5277 0,0.12053 -0.109729,0.33104 -0.243831,0.46781 -0.313651,0.31987 -0.279778,2.21661 0.04672,2.61786 0.455594,0.55985 1.036778,0.35345 1.382791,-0.4911 0.436121,-1.06449 0.471774,-5.81365 0.04362,-5.81365 -0.155878,0 -0.492187,-0.19835 -0.747355,-0.4408 -0.255167,-0.24243 -0.655015,-0.44079 -0.888562,-0.44079 -0.886144,0 -3.26734,-3.18992 -3.26734,-4.37703 0,-0.22988 -0.170482,-0.55404 -0.378847,-0.72035 -0.343823,-0.27442 -0.338833,-0.27969 0.05399,-0.057 0.238088,0.13497 0.462675,0.49658 0.499096,0.80358 0.03643,0.30701 0.24602,0.72414 0.465788,0.92698 0.378896,0.34969 0.406692,0.33575 0.53702,-0.2694 0.158263,-0.73489 -0.15698,-1.72609 -0.756682,-2.37916 -0.367437,-0.40014 -0.409338,-0.74763 -0.363802,-3.016961 l 0.05146,-2.564746 -0.81041,-0.849303 c -0.759329,-0.795767 -0.81042,-0.935228 -0.81042,-2.212178 0,-0.974096 -0.123067,-1.568726 -0.431416,-2.084496 -0.23728,-0.396892 -0.42342,-0.919975 -0.413643,-1.16242 0.01413,-0.350936 0.05203,-0.325637 0.185805,0.124117 0.09243,0.310701 0.424449,1.033272 0.737822,1.605711 0.313365,0.572439 0.569766,1.266521 0.569766,1.542411 0,0.571606 0.727359,1.466333 1.192044,1.466333 0.170923,0 0.471537,0.250226 0.668026,0.556054 0.293672,0.457093 0.339323,0.967215 0.256508,2.866259 -0.08597,1.971341 -0.04256,2.407817 0.296065,2.975649 0.21824,0.36599 0.3968,0.86848 0.3968,1.11665 0,0.40108 0.03602,0.41448 0.324171,0.12062 0.178291,-0.18183 0.324163,-0.40568 0.324163,-0.49744 0,-0.0918 0.211452,-0.39638 0.469896,-0.676938 L 29.08772,99.395885 28.617824,98.88578 c -0.258444,-0.280555 -0.469896,-0.68826 -0.469896,-0.906006 0,-0.338782 0.06134,-0.320831 0.425037,0.1244 0.233768,0.28617 0.428264,0.441783 0.432217,0.345796 0.0041,-0.09598 -0.187308,-0.387421 -0.425029,-0.647651 -0.237721,-0.26023 -0.432225,-0.74896 -0.432225,-1.086076 0,-0.337107 0.194504,-0.96609 0.432225,-1.397735 0.237721,-0.431637 0.432225,-1.063952 0.432225,-1.405133 0,-0.341181 0.194496,-0.79984 0.432217,-1.019244 0.332396,-0.306786 0.432225,-0.678822 0.432225,-1.610809 0,-1.121129 0.06216,-1.271244 0.830406,-2.004519 0.456722,-0.435952 0.940014,-0.990997 1.073985,-1.233443 0.133971,-0.242436 0.246534,-0.309193 0.250152,-0.148341 0.0033,0.160845 -0.308186,0.60715 -0.69289,0.991789 -0.687802,0.687693 -0.698216,0.728194 -0.62508,2.430633 0.07286,1.6966 0.06093,1.743831 -0.59721,2.356862 -0.369373,0.344063 -0.665005,0.755133 -0.656959,0.913486 0.0082,0.158362 0.120151,0.06481 0.249132,-0.207975 0.364194,-0.770119 0.600689,-0.588333 0.600689,0.461741 0,0.67773 -0.126334,1.074231 -0.432225,1.356552 -0.237721,0.219404 -0.432225,0.66571 -0.432225,0.991788 0,0.326087 0.194504,0.772393 0.432225,0.991797 0.536441,0.495095 0.576603,1.786173 0.07319,2.353448 -0.197453,0.22251 -0.464889,0.61942 -0.594302,0.88201 -0.129414,0.26261 -0.527048,0.64118 -0.883629,0.84129 -0.92776,0.52062 -0.983531,1.46921 -0.140506,2.38957 0.374829,0.40922 0.852983,0.69663 1.158964,0.69663 0.286475,0 0.72851,0.19728 0.98229,0.4384 0.526622,0.50036 0.970471,0.41216 1.787629,-0.35525 0.300696,-0.28238 0.932824,-0.6491 1.404729,-0.81494 1.023253,-0.35959 1.258254,-1.13421 0.54407,-1.79335 -0.243349,-0.2246 -0.442452,-0.49926 -0.442452,-0.61034 0,-0.24237 0.419639,0.17642 0.927311,0.92544 0.703215,1.0375 0.276536,2.07656 -0.921903,2.24504 -0.294179,0.0414 -0.643188,0.29767 -0.775575,0.56958 -0.132387,0.27191 -0.402265,0.67643 -0.599718,0.89895 -0.486085,0.54777 -0.452416,1.42752 0.07318,1.91265 0.358322,0.3307 0.432217,0.67882 0.432217,2.03589 0,1.35067 -0.118329,1.91331 -0.676496,3.21672 -0.372077,0.86886 -0.761077,1.61279 -0.864443,1.6532 -0.292046,0.11416 -0.228679,3.4334 0.07139,3.73942 0.143708,0.14656 0.833813,0.26448 1.547817,0.26448 0.990164,0 1.505539,0.12973 2.225947,0.56029 0.515604,0.30816 0.937456,0.69903 0.937456,0.86859 0,0.16956 0.08208,0.36003 0.182391,0.42325 0.100311,0.0632 0.05677,-0.60038 -0.09669,-1.47468 -0.374772,-2.13477 -0.365623,-4.41427 0.0236,-5.88741 0.176168,-0.6667 0.38468,-2.20398 0.46337,-3.41617 0.140939,-2.17117 0.474225,-3.19578 1.039507,-3.19578 0.605639,0 1.042406,-0.8432 0.901671,-1.74075 -0.114792,-0.73209 -0.04762,-0.97815 0.42293,-1.54841 0.33296,-0.40355 0.765372,-0.67801 1.06822,-0.67801 0.62502,0 1.181655,-0.7619 1.181655,-1.6174 0,-0.37121 -0.300738,-1.06456 -0.719611,-1.65904 -1.037284,-1.472193 -1.323258,-2.296399 -1.006324,-2.900342 0.320817,-0.611348 -0.06984,-2.212702 -0.676346,-2.77248 -0.769873,-0.71055 -0.347654,-3.481931 0.637714,-4.185801 0.549198,-0.39231 0.586698,-0.843122 0.142402,-1.711918 -0.493363,-0.96475 -0.385372,-0.997487 0.232322,-0.07047 0.420124,0.630532 0.521212,0.990814 0.415597,1.481219 -0.07676,0.356416 -0.229331,0.704611 -0.339048,0.773767 -0.387069,0.243961 -0.218719,1.998921 0.250055,2.606687 0.717855,0.930713 0.38289,1.083361 -0.503568,0.229484 -0.445729,-0.429346 -0.810415,-0.693857 -0.810415,-0.587799 0,0.106057 0.290143,0.411602 0.644765,0.678979 1.046494,0.789061 1.368254,1.659023 1.247925,3.374116 -0.09424,1.343249 -0.05549,1.539129 0.388663,1.964668 0.271336,0.259963 0.610207,0.760397 0.753044,1.11208 0.142838,0.35169 0.333816,0.63943 0.424394,0.63943 0.20563,0 0.424359,-0.8042 0.428259,-1.57458 0.0043,-0.85591 1.089882,-1.951799 1.933383,-1.951799 0.428381,0 0.726485,-0.13293 0.812852,-0.362464 0.130252,-0.346154 -0.02748,-0.532563 -0.906867,-1.071765 -0.314886,-0.193081 -0.325493,-0.304062 -0.0813,-0.850645 0.244508,-0.547274 0.23302,-0.664244 -0.08881,-0.90424 -0.406857,-0.303404 -0.490408,-0.896318 -0.156006,-1.107093 0.123581,-0.07789 0.158081,0.01299 0.08184,0.215598 -0.07248,0.19264 0.03856,0.542234 0.246775,0.776866 0.266622,0.300455 0.339874,0.623885 0.247724,1.093781 -0.114965,0.586225 -0.07119,0.667176 0.360813,0.667176 0.67931,0 1.010319,0.40314 1.010319,1.230469 0,0.633814 -0.114701,0.756899 -1.188611,1.275459 l -1.188612,0.573947 v 1.1993 c 0,1.21306 -0.219146,1.64222 -1.077915,2.11094 -0.248502,0.13563 -0.355676,0.37285 -0.287888,0.63722 0.229696,0.89578 -0.866691,1.87019 -2.308087,2.05131 -0.491104,0.0617 -0.540278,0.16315 -0.540278,1.11453 0,0.92734 -0.09238,1.13333 -0.810416,1.80706 l -0.810419,0.7604 -0.05399,3.81311 c -0.117636,8.30208 -0.07229,8.98754 0.706318,10.67616 0.383462,0.83165 0.965304,1.80963 1.292985,2.17329 0.327681,0.36365 0.80622,1.25626 1.063418,1.98358 0.257201,0.72731 0.406229,1.02485 0.331174,0.6612 -0.385206,-1.86644 -0.3632,-2.5903 0.10455,-3.43906 0.362167,-0.65717 0.416011,-0.94404 0.240108,-1.27923 -0.124713,-0.23766 -0.22675,-0.74267 -0.22675,-1.12227 0,-0.3796 -0.105519,-0.89125 -0.234488,-1.13701 -0.324434,-0.61824 -0.105678,-1.24729 0.791721,-2.27669 0.744986,-0.85456 0.807637,-0.87996 2.24295,-0.90935 1.742353,-0.0357 1.954263,-0.13661 1.954263,-0.93079 0,-0.44523 -0.361394,-0.96475 -1.404723,-2.01931 -1.614863,-1.63226 -1.814498,-2.39574 -0.864445,-3.30598 0.656032,-0.62853 0.7033,-1.54441 0.108056,-2.09378 -0.299623,-0.27653 -0.431226,-0.6758 -0.428978,-1.30145 0.0029,-0.78637 0.155816,-1.07021 1.18861,-2.2052 1.219663,-1.34037 1.478303,-2.12595 0.915229,-2.77988 -0.148576,-0.17255 -0.05133,-0.12743 0.216112,0.10028 0.626769,0.53365 0.654222,1.71717 0.05403,2.32928 -0.261598,0.26678 -0.432222,0.73466 -0.432222,1.1852 0,0.88444 -0.428998,1.36657 -0.852819,0.95844 -0.228041,-0.2196 -0.23893,-0.18717 -0.0581,0.17301 0.122401,0.2438 0.426055,0.63108 0.674788,0.86065 0.737988,0.68112 0.561785,3.14219 -0.26423,3.69061 -0.227583,0.1511 0.632227,1.08051 1.658746,1.79302 0.485995,0.33733 0.570501,0.55577 0.570501,1.47468 0,1.19759 0.301208,1.684 0.363977,0.58776 0.07536,-1.31607 0.342651,-2.43917 0.656747,-2.75949 0.202781,-0.20681 0.269419,-0.54362 0.187301,-0.94668 -0.07011,-0.34411 -0.185862,-0.91436 -0.257232,-1.26724 -0.103643,-0.51246 -0.03467,-0.69349 0.342676,-0.89945 0.259841,-0.14182 0.520063,-0.20929 0.578273,-0.14993 0.05821,0.0594 -0.105625,0.17638 -0.364072,0.26003 -0.400849,0.12975 -0.447007,0.25417 -0.314092,0.84663 0.191431,0.8533 0.188635,2.79931 -0.0072,4.99228 -0.138517,1.55131 -0.20225,1.7106 -1.03616,2.58968 -0.837901,0.88328 -0.957789,0.9367 -2.102566,0.9367 -1.900694,0 -2.087975,0.31995 -2.25757,3.85697 -0.07556,1.57585 -0.131711,3.60902 -0.12478,4.51816 0.01267,1.6611 -0.113383,2.13606 -1.203852,4.53628 -0.279885,0.61606 -0.572027,1.45908 -0.649201,1.87339 -0.07718,0.41431 -0.223884,0.86263 -0.326018,0.99627 -0.102138,0.13364 -0.185704,6.25795 -0.185704,13.60959 v 13.36662 h 1.512778 1.512778 v -13.66466 -13.6647 h 3.349725 c 3.304973,0 3.349723,0.007 3.349723,0.48384 0,0.82102 -1.037789,1.72014 -1.985433,1.72014 h -0.824012 v 13.84186 13.84187 l -0.712651,0.70442 -0.712648,0.70443 H 41.95233 c -4.131942,0 -4.230072,-0.0107 -4.690134,-0.5101 z m 87.957182,-1.50585 c -0.47631,-0.59583 -0.48054,-0.62883 -0.0804,-0.62883 0.55302,0 0.99367,0.5479 0.76233,0.94789 -0.1413,0.24433 -0.28535,0.17692 -0.68185,-0.31906 z m -0.79398,0.25277 c -0.0734,-0.12122 -0.0305,-0.2204 0.0953,-0.2204 0.12588,0 0.22887,0.0992 0.22887,0.2204 0,0.12122 -0.0429,0.2204 -0.0953,0.2204 -0.0524,0 -0.1554,-0.0992 -0.22887,-0.2204 z m -1.63246,-1.2453 c -0.40962,-0.44246 -0.60219,-0.7209 -0.42793,-0.61875 0.17425,0.10215 0.6605,0.24235 1.08056,0.31156 0.57907,0.0954 0.78042,0.24501 0.83278,0.61876 0.10802,0.77102 -0.62569,0.61712 -1.48541,-0.31157 z m 3.56858,0.56944 c -0.0783,-0.12929 -0.0906,-0.28798 -0.0271,-0.35267 0.15481,-0.15787 0.5763,0.1203 0.5763,0.38034 0,0.28166 -0.3731,0.26286 -0.54916,-0.0277 z m -1.44987,-0.79846 c -0.22913,-0.0611 -0.37819,-0.31159 -0.37819,-0.63562 0,-0.664 0.14237,-0.67239 0.66053,-0.039 0.62892,0.76885 0.57297,0.90252 -0.28234,0.67457 z m -1.50145,-0.30044 c -0.4395,-0.0746 -0.9347,-0.25046 -1.10044,-0.39074 -0.16574,-0.14028 -0.3445,-0.21105 -0.39724,-0.15727 -0.0528,0.0538 -0.0959,-0.0958 -0.0959,-0.33251 0,-0.34874 0.15054,-0.4303 0.79419,-0.4303 0.8817,0 1.79827,0.61221 1.67668,1.11992 -0.0592,0.24735 -0.27206,0.29366 -0.8773,0.1909 z m 0.17589,-1.50447 c -0.3389,-0.36075 -0.89651,-0.77433 -1.23913,-0.91907 -0.43961,-0.18571 -0.62294,-0.41744 -0.62294,-0.78741 v -0.52426 h -3.09595 c -2.95673,0 -3.11707,-0.0229 -3.56584,-0.51009 -0.42192,-0.45804 -0.46988,-0.7505 -0.46988,-2.86518 0,-2.1422 0.036,-2.35508 0.39872,-2.35508 0.2193,0 0.57475,-0.19836 0.78989,-0.4408 0.21514,-0.24243 0.59773,-0.4408 0.85023,-0.4408 0.25249,0 0.59926,-0.19835 0.7706,-0.44079 0.17134,-0.24244 0.48456,-0.4408 0.69604,-0.4408 0.33657,0 0.38452,0.21986 0.38452,1.76319 v 1.76318 h 2.80944 2.80944 v -1.76318 -1.76319 h 1.945 1.94501 v 3.26756 c 0,3.13057 -0.021,3.28765 -0.50018,3.74678 -0.36663,0.35126 -0.77055,0.4792 -1.51277,0.4792 h -1.01261 v 1.2122 c 0,0.89888 -0.0791,1.21219 -0.30616,1.21219 -0.16838,0 -0.34015,0.10401 -0.3817,0.23113 -0.0416,0.12713 -0.35283,-0.0641 -0.69173,-0.42478 z m -1.86207,-0.46755 c 0,-0.55573 0.24667,-0.55775 0.89453,-0.007 l 0.51019,0.43346 -0.70237,0.007 c -0.56068,0.006 -0.70235,-0.0816 -0.70235,-0.43347 z M 51.055816,150.30791 v -9.03634 h 5.835003 c 4.581259,0 5.835003,0.0603 5.835003,0.28067 0,0.15436 -0.755841,1.04698 -1.679643,1.98359 l -1.679644,1.70291 h -2.210358 -2.210359 v 1.54279 1.54279 h 1.727059 c 1.493009,0 1.763638,-0.0597 1.996984,-0.4408 0.16399,-0.26779 0.503979,-0.4408 0.866278,-0.4408 h 0.596348 v 2.86519 2.86517 h -0.596348 c -0.362299,0 -0.702288,-0.173 -0.866278,-0.4408 -0.233346,-0.38105 -0.503975,-0.44079 -1.996984,-0.44079 h -1.727059 v 1.54279 1.54278 h 4.168265 4.168263 l 1.018406,1.05447 c 0.889236,0.92072 1.018404,1.17231 1.018404,1.98358 v 0.92912 h -7.13167 -7.13167 z m 15.560007,8.6915 c 0,-0.18965 0.29175,-0.59518 0.648334,-0.90118 l 0.648334,-0.55636 v -7.19012 -7.19011 l 0.909441,-0.94504 0.909441,-0.94503 h 4.444083 4.444083 l 1.778144,1.82289 1.778148,1.82289 v 3.64119 3.64117 l -0.926653,0.92748 c -0.75275,0.75343 -1.077207,0.92748 -1.72889,0.92748 -0.508168,0 -0.802237,0.10352 -0.802237,0.2824 0,0.15532 0.562008,0.84958 1.248906,1.54279 0.999904,1.0091 1.38769,1.26039 1.945001,1.26039 0.691237,0 0.696093,0.008 0.696093,1.102 v 1.10198 h -3.025555 -3.02556 v -1.76318 -1.76319 h -2.377221 -2.377223 v 1.76319 1.76318 h -2.593334 c -2.208672,0 -2.593335,-0.0511 -2.593335,-0.34482 z m 11.274795,-7.51347 c 0.339287,-0.31315 0.395211,-0.7239 0.395211,-2.90293 0,-3.28899 -0.0424,-3.34427 -2.565379,-3.34427 h -1.850055 l -1.033954,1.03861 -1.033949,1.0386 v 2.26738 2.26736 h 2.846457 c 2.345382,0 2.916025,-0.0642 3.241669,-0.36475 z m 7.792248,6.0354 -1.778148,-1.82288 v -7.70475 -7.70474 l 1.945001,1.9744 1.945001,1.97438 v 5.56966 5.56965 h 2.377225 2.377223 v -5.79004 -5.79006 l 1.945001,-1.97439 1.945001,-1.9744 v 7.93462 7.9346 l -1.787433,1.81342 -1.787432,1.81342 H 90.162659 87.46101 Z m 13.394636,0.87786 -0.90944,-0.94503 v -8.0913 -8.0913 h 5.402778 5.40278 v 0.94498 c 0,0.83663 -0.11854,1.06405 -1.03395,1.98359 l -1.03395,1.0386 h -2.42383 -2.42383 v 1.54279 1.54279 h 2.59333 2.59334 v 0.94497 c 0,0.83665 -0.11853,1.06406 -1.03394,1.98359 l -1.03396,1.03861 h -1.55939 -1.55938 v 1.54279 1.54278 h 5.18667 5.18667 v 1.98359 1.98358 h -6.22222 -6.222239 z m 33.713358,0 -0.90945,-0.94503 v -6.98931 -6.98931 h -0.86444 -0.86445 v -1.10199 -1.10199 h 2.80945 2.80944 v 6.67742 6.67742 l 0.86445,0.86086 c 0.84093,0.83744 0.86444,0.90158 0.86444,2.35891 v 1.49805 h -1.9 -1.90001 z m 6.00611,-0.59775 v -1.54279 h 0.86444 0.86445 v -4.29777 -4.29777 h 1.0678 c 0.58729,0 1.1279,0.0992 1.20137,0.2204 0.0734,0.12122 0.33591,0.2204 0.58323,0.2204 0.91994,0 1.02344,0.50996 1.03073,5.07838 l 0.007,4.30697 -0.92665,0.92748 -0.92665,0.92748 h -1.88279 -1.8828 z m 6.91556,0.4408 v -1.102 h 0.86444 0.86444 v -6.00149 -6.0015 l 1.88647,-1.93284 1.88647,-1.93285 h 3.34995 3.34996 l 1.89524,1.92389 1.89525,1.92389 v 6.01045 6.01045 h 0.86445 0.86445 v 1.102 1.10198 h -2.80945 -2.80945 v -3.52637 -3.52637 h -2.55093 -2.55094 l -0.69073,0.72679 -0.69073,0.72678 v 2.79959 2.79958 h -2.80945 -2.80944 z m 12.10222,-11.90152 v -1.98358 h -2.52901 -2.52902 l -0.71265,0.70443 c -0.64492,0.63748 -0.71265,0.82599 -0.71265,1.98358 v 1.27916 h 3.24166 3.24167 z m 6.91556,3.96718 v -9.03634 h 1.94501 1.945 v 3.52637 3.52638 h 1.51277 1.51279 v -3.52638 -3.52637 h 1.945 1.945 v 3.46667 3.46667 l -1.77816,1.82289 -1.77814,1.82289 h 1.77814 1.77816 v 3.74678 3.74676 h -1.945 -1.945 v -3.52637 -3.52637 h -1.51279 -1.51277 v 2.42438 2.42438 h 0.86444 0.86445 v 1.102 1.10198 h -2.80945 -2.80945 z m 12.96668,8.30901 c 0,-0.40002 0.0911,-0.82154 0.20246,-0.93669 0.11136,-0.11515 0.23292,-0.64798 0.27014,-1.18405 0.0373,-0.53606 0.16772,-1.00811 0.28999,-1.04899 0.36881,-0.12332 0.96629,1.15275 0.96629,2.06372 0,0.46952 0.15139,1.07409 0.33642,1.34349 0.33556,0.48858 0.33334,0.48983 -0.86444,0.48983 h -1.20086 z m 2.32319,0.23878 c -0.21434,-0.27358 -0.37819,-0.85438 -0.37819,-1.34057 0,-0.79106 -0.53715,-2.14889 -0.91848,-2.32173 -0.0891,-0.0404 -0.16208,-0.31315 -0.16208,-0.6061 0,-0.51251 0.0571,-0.53263 1.51277,-0.53263 h 1.51279 v 0.6612 0.66119 h 6.05111 6.05111 v 0.75839 c 0,0.41711 -0.0973,0.81969 -0.21611,0.89461 -0.11886,0.0749 -0.21611,0.36616 -0.21611,0.64721 0,0.28105 -0.14588,0.63447 -0.32417,0.78537 -0.17829,0.15091 -0.32416,0.37479 -0.32416,0.49751 0,0.12272 0.1945,-0.0291 0.43222,-0.33725 0.23773,-0.30821 0.43222,-0.65657 0.43222,-0.77413 0,-0.11756 0.14587,-0.33721 0.32417,-0.48812 0.18616,-0.15756 0.32417,-0.6382 0.32417,-1.12898 v -0.85461 h 1.25002 c 1.22255,0 1.27479,0.0256 2.37722,1.16403 0.95215,0.98325 1.1272,1.2913 1.1272,1.98359 v 0.81955 l -9.23875,-0.003 -9.23875,-0.003 -0.3782,-0.4827 z M 33.332654,157.96675 c -0.485432,-0.74731 -0.689558,-1.81722 -0.794843,-4.16624 -0.07825,-1.74544 -0.170498,-2.1969 -0.513684,-2.51364 -0.341357,-0.31505 -0.418324,-0.68393 -0.418324,-2.00492 0,-1.74791 0.224979,-2.02042 0.972505,-1.17803 0.215136,0.24244 0.570582,0.4408 0.789885,0.4408 0.375751,0 0.398728,0.28578 0.398728,4.95896 0,2.72743 -0.02524,4.95896 -0.05611,4.95896 -0.03087,0 -0.201022,-0.22315 -0.378194,-0.49589 z m 144.402086,-2.52767 c -0.0322,-1.92139 0.01,-2.23353 0.28641,-2.1253 0.36664,0.14348 0.46081,1.83382 0.1217,2.18451 -0.11136,0.11515 -0.24024,0.65568 -0.28641,1.20116 -0.0461,0.5455 -0.10093,-0.0217 -0.1217,-1.26037 z M 29.876918,148.99852 c 0,-7.91182 0.02875,-8.12928 0.939008,-7.1035 0.30773,0.34679 0.35766,1.01889 0.35766,4.8146 0,4.13166 0.02744,4.43687 0.432217,4.81048 0.23773,0.2194 0.432225,0.55986 0.432225,0.75656 0,0.19672 -0.194495,0.5275 -0.432225,0.73509 -0.298548,0.26069 -0.432217,0.65015 -0.432217,1.2593 0,0.64319 -0.11699,0.95639 -0.432226,1.15717 -0.237721,0.1514 -0.432217,0.39433 -0.432217,0.53985 0,0.14552 -0.09726,0.32587 -0.216116,0.40079 -0.142458,0.0898 -0.216109,-2.42209 -0.216109,-7.37034 z m 148.630492,4.15956 -0.81042,-0.43633 v -6.38628 -6.38629 h 3.24167 3.24166 l -0.009,0.9367 c -0.007,0.71103 -0.16285,1.12051 -0.64833,1.69976 -0.66492,0.79334 -0.89427,1.40157 -0.29995,0.79546 0.42262,-0.43101 0.87355,-0.4454 1.02879,-0.0328 0.0649,0.17243 0.34272,0.36244 0.61742,0.42228 0.27471,0.0598 -0.13266,0.10569 -0.90525,0.10194 -2.60155,-0.0127 -2.37723,-0.16238 -2.37723,1.58665 v 1.5428 h 2.54555 2.54555 l 1.34445,1.38341 c 0.98728,1.0159 1.34445,1.54286 1.34445,1.98359 v 0.60017 h -3.89 -3.89 v 1.32239 1.32239 l -1.13458,-0.01 c -0.69751,-0.006 -1.44679,-0.17782 -1.945,-0.44605 z m -63.91489,-0.64619 c 0,-0.58774 0.072,-0.6612 0.64833,-0.6612 0.74504,0 0.85205,0.40486 0.25312,0.95764 -0.59069,0.54517 -0.90145,0.44297 -0.90145,-0.29644 z m 0,-8.75249 v -5.00573 l 0.90944,-0.94503 0.90943,-0.94504 h 2.76446 c 3.15883,0 3.26112,0.0771 1.9,1.4326 -0.70854,0.70559 -0.86445,1.01178 -0.86445,1.69771 0,0.82942 -0.007,0.83686 -0.86444,0.83686 h -0.86444 v 3.52638 c 0,3.37944 -0.018,3.52637 -0.43223,3.52637 -0.28815,0 -0.43222,0.14693 -0.43222,0.4408 0,0.39882 -0.14408,0.44079 -1.51278,0.44079 h -1.51277 z m 10.37333,4.56492 c 0,-0.29387 -0.14407,-0.4408 -0.43222,-0.4408 -0.41422,0 -0.43223,-0.14693 -0.43223,-3.52637 v -3.52638 h -1.72888 -1.72889 v -0.72666 c 0,-0.55737 0.20139,-0.92722 0.86444,-1.58752 0.47545,-0.47347 0.86445,-1.03908 0.86445,-1.25692 0,-0.36084 0.24983,-0.39607 2.80944,-0.39607 h 2.80945 v 5.95075 5.95076 h -1.51278 c -1.3687,0 -1.51278,-0.042 -1.51278,-0.44079 z m 19.15575,-0.3306 c -0.0685,-0.18183 -0.25394,-0.3306 -0.41226,-0.3306 -0.40291,0 -1.45087,-0.51665 -1.4529,-0.71629 -8.2e-4,-0.0909 0.14885,-0.1653 0.33284,-0.1653 0.4676,0 1.3793,-1.11379 1.38753,-1.69508 0.004,-0.26559 0.10408,-0.54418 0.22294,-0.6191 0.138,-0.087 0.21611,0.58544 0.21611,1.86037 0,1.98355 -0.0559,2.29966 -0.29426,1.666 z M 32.948097,147.82843 c -0.318396,-0.39263 -0.08495,-1.35661 0.403923,-1.66798 0.388388,-0.24736 0.414901,-0.19372 0.414901,0.83961 0,1.12436 -0.317947,1.44601 -0.818824,0.82837 z m 107.577763,-3.80188 v -3.19578 h 2.80944 2.80945 v 1.10199 1.102 h -0.86444 c -0.76614,0 -0.86445,0.0596 -0.86445,0.52401 0,0.2882 -0.14588,0.64747 -0.32417,0.79838 -0.17829,0.15091 -0.32416,0.49289 -0.32416,0.75996 0,0.51137 -0.81596,1.44402 -1.26336,1.44402 -0.14464,0 -0.31897,0.14877 -0.38738,0.3306 -0.0768,0.20398 -0.40523,0.3306 -0.85766,0.3306 h -0.73327 z m 44.84308,-0.3306 c -0.0734,-0.12121 -0.2737,-0.2204 -0.44499,-0.2204 -0.17127,0 -0.49799,-0.19028 -0.72605,-0.42287 -0.40877,-0.41688 -0.40877,-0.42827 0,-0.80555 0.28759,-0.26542 0.41464,-0.67612 0.41464,-1.34031 v -0.95764 h 3.45778 c 4.1807,0 4.20274,0.0277 1.88589,2.37479 l -1.57188,1.59238 h -1.44092 c -0.7925,0 -1.50102,-0.0992 -1.57447,-0.2204 z"
       id="path4496-1"
       inkscape:connector-curvature="0" />
  </g>
</svg>
